<svg width="7540" height="1701" xmlns="http://www.w3.org/2000/svg" xmlns:xlink="http://www.w3.org/1999/xlink" xml:space="preserve" overflow="hidden"><g transform="translate(1198 -1186)"><path d="M-1195.5 1378.34C-1195.5 1273.49-1110.51 1188.5-1005.66 1188.5L-246.337 1188.5C-141.493 1188.5-56.4999 1273.49-56.4999 1378.34L-56.4999 2694.66C-56.4999 2799.51-141.493 2884.5-246.337 2884.5L-1005.66 2884.5C-1110.51 2884.5-1195.5 2799.51-1195.5 2694.66Z" stroke="#192D54" stroke-width="4.58333" stroke-miterlimit="8" fill="#D0CECE" fill-rule="evenodd"/><rect x="-1045.5" y="1422.5" width="594" height="253" stroke="#192D54" stroke-width="4.58333" stroke-miterlimit="8" fill="#AFABAB"/><text font-family="Microsoft YaHei,Microsoft YaHei_MSFontService,sans-serif" font-weight="700" font-size="83" transform="matrix(1 0 0 1 -899.04 1578)">Images</text><rect x="-1045.5" y="1821.5" width="594" height="253" stroke="#192D54" stroke-width="4.58333" stroke-miterlimit="8" fill="#AFABAB"/><text font-family="Microsoft YaHei,Microsoft YaHei_MSFontService,sans-serif" font-weight="700" font-size="83" transform="matrix(1 0 0 1 -869.821 1977)">Video</text><rect x="-1045.5" y="2222.5" width="594" height="253" stroke="#192D54" stroke-width="4.58333" stroke-miterlimit="8" fill="#AFABAB"/><text font-family="Microsoft YaHei,Microsoft YaHei_MSFontService,sans-serif" font-weight="700" font-size="83" transform="matrix(1 0 0 1 -906.488 2378)">Camera</text><path d="M146.501 0 992.501 0C1073.41-3.62525e-14 1139 65.5905 1139 146.501L1139 293 0 293 0 146.501C-1.81262e-14 65.5905 65.5905-3.62525e-14 146.501-7.2505e-14Z" stroke="#192D54" stroke-width="4.58333" stroke-miterlimit="8" fill="#767171" fill-rule="evenodd" transform="matrix(1 0 0 -1 -1195.5 2884.5)"/><text font-family="Microsoft YaHei,Microsoft YaHei_MSFontService,sans-serif" font-weight="700" font-size="83" transform="matrix(1 0 0 1 -956.269 2753)">Data Loader</text><rect x="-263.5" y="1298.5" width="145" height="1422" stroke="#192D54" stroke-width="4.58333" stroke-miterlimit="8" fill="#AFABAB"/><rect x="-263.5" y="1298.5" width="145" height="124" stroke="#192D54" stroke-width="4.58333" stroke-miterlimit="8" fill="#767171"/><path d="M-452 1542.12-297.642 1542.13-297.642 1555.88-452 1555.87ZM-304.517 1528.38-263.267 1549-304.517 1569.63Z" fill="#767171"/><path d="M-451.966 1940.13-297.608 1940.88-297.675 1954.63-452.034 1953.87ZM-304.415 1927.1-263.267 1947.93-304.617 1968.35Z" fill="#767171"/><path d="M-452 2342.12-297.642 2342.12-297.642 2355.88-452 2355.87ZM-304.517 2328.38-263.267 2349-304.517 2369.62Z" fill="#767171"/><text font-family="Microsoft YaHei,Microsoft YaHei_MSFontService,sans-serif" font-weight="700" font-size="83" transform="matrix(-1.83697e-16 -1 1 -1.83697e-16 -175.699 2640)">FIFO queue</text><path d="M77.4998 1378.49C77.4998 1273.56 162.563 1188.5 267.493 1188.5L1027.44 1188.5C1132.37 1188.5 1217.43 1273.56 1217.43 1378.49L1217.43 2694.51C1217.43 2799.44 1132.37 2884.5 1027.44 2884.5L267.493 2884.5C162.563 2884.5 77.4998 2799.44 77.4998 2694.51Z" stroke="#192D54" stroke-width="4.58333" stroke-miterlimit="8" fill="#FCE6D5" fill-rule="evenodd"/><rect x="229.5" y="1575.5" width="593" height="253" stroke="#192D54" stroke-width="4.58333" stroke-miterlimit="8" fill="#F8CDAC"/><text font-family="Microsoft YaHei,Microsoft YaHei_MSFontService,sans-serif" font-weight="700" font-size="83" transform="matrix(1 0 0 1 374.178 1681)">Human</text><text font-family="Microsoft YaHei,Microsoft YaHei_MSFontService,sans-serif" font-weight="700" font-size="83" transform="matrix(1 0 0 1 344.753 1780)">Detector</text><path d="M146.499 0 993.501 0C1074.41-1.81422e-14 1140 65.5903 1140 146.5L1140 293 0 293 0 146.5C0 65.5903 65.5901-5.44266e-14 146.499-7.25688e-14Z" stroke="#192D54" stroke-width="4.58333" stroke-miterlimit="8" fill="#F5B482" fill-rule="evenodd" transform="matrix(1 0 0 -1 77.4998 2884.5)"/><rect x="284" y="2658" width="726" height="160" fill="#F5B482"/><text font-family="Microsoft YaHei,Microsoft YaHei_MSFontService,sans-serif" font-weight="700" font-size="83" transform="matrix(1 0 0 1 317.468 2753)">Detection</text><rect x="1010.5" y="1298.5" width="145" height="1422" stroke="#192D54" stroke-width="4.58333" stroke-miterlimit="8" fill="#F8CDAC"/><rect x="1010.5" y="1298.5" width="145" height="124" stroke="#192D54" stroke-width="4.58333" stroke-miterlimit="8" fill="#767171"/><path d="M822 1694.12 976.358 1694.13 976.358 1707.88 822 1707.87ZM969.483 1680.38 1010.73 1701 969.483 1721.63Z" fill="#C65F10"/><text font-family="Microsoft YaHei,Microsoft YaHei_MSFontService,sans-serif" font-weight="700" font-size="83" transform="matrix(-1.83697e-16 -1 1 -1.83697e-16 1098.04 2640)">FIFO queue</text><rect x="1011.5" y="1422.5" width="144" height="124" stroke="#192D54" stroke-width="4.58333" stroke-miterlimit="8" fill="#F5B482"/><path d="M1350.5 1378.49C1350.5 1273.56 1435.56 1188.5 1540.49 1188.5L2300.44 1188.5C2405.37 1188.5 2490.44 1273.56 2490.44 1378.49L2490.44 2694.51C2490.44 2799.44 2405.37 2884.5 2300.44 2884.5L1540.49 2884.5C1435.56 2884.5 1350.5 2799.44 1350.5 2694.51Z" stroke="#192D54" stroke-width="4.58333" stroke-miterlimit="8" fill="#DAE3F5" fill-rule="evenodd"/><rect x="1443.5" y="1704.5" width="728" height="253" stroke="#192D54" stroke-width="4.58333" stroke-miterlimit="8" fill="#B6C7EA"/><text font-family="Microsoft YaHei,Microsoft YaHei_MSFontService,sans-serif" font-weight="700" font-size="83" transform="matrix(1 0 0 1 1613.99 1860)">Box NMS</text><path d="M146.499 0 993.5 0C1074.41-1.81422e-14 1140 65.5903 1140 146.5L1140 293 0 293 0 146.5C0 65.5903 65.59-5.44266e-14 146.499-7.25688e-14Z" stroke="#192D54" stroke-width="4.58333" stroke-miterlimit="8" fill="#91ACE0" fill-rule="evenodd" transform="matrix(1 0 0 -1 1350.5 2884.5)"/><rect x="1447" y="2658" width="878" height="160" fill="#91ACE0"/><text font-family="Microsoft YaHei,Microsoft YaHei_MSFontService,sans-serif" font-weight="700" font-size="83" transform="matrix(1 0 0 1 1479.64 2753)">Data Transform</text><rect x="2283.5" y="1298.5" width="145" height="1422" stroke="#192D54" stroke-width="4.58333" stroke-miterlimit="8" fill="#B6C7EA"/><rect x="2283.5" y="1298.5" width="145" height="124" stroke="#192D54" stroke-width="4.58333" stroke-miterlimit="8" fill="#767171"/><path d="M2171 1823.13 2248.67 1823.13 2248.67 1836.88 2171 1836.88ZM2241.8 1809.38 2283.05 1830 2241.8 1850.63Z" fill="#2E54A1"/><text font-family="Microsoft YaHei,Microsoft YaHei_MSFontService,sans-serif" font-weight="700" font-size="83" transform="matrix(-1.83697e-16 -1 1 -1.83697e-16 2370.86 2640)">FIFO queue</text><rect x="2283.5" y="1422.5" width="145" height="124" stroke="#192D54" stroke-width="4.58333" stroke-miterlimit="8" fill="#F5B482"/><rect x="2283.5" y="1546.5" width="145" height="124" stroke="#192D54" stroke-width="4.58333" stroke-miterlimit="8" fill="#91ACE0"/><rect x="1443.5" y="2074.5" width="727" height="252" stroke="#192D54" stroke-width="4.58333" stroke-miterlimit="8" fill="#B6C7EA"/><text font-family="Microsoft YaHei,Microsoft YaHei_MSFontService,sans-serif" font-weight="700" font-size="83" transform="matrix(1 0 0 1 1539.24 2230)">Crop&amp;Resize</text><path d="M2171 2184.12 2248.67 2184.13 2248.67 2197.88 2171 2197.88ZM2241.8 2170.38 2283.05 2191 2241.8 2211.63Z" fill="#2E54A1"/><path d="M2623.5 1378.49C2623.5 1273.56 2708.56 1188.5 2813.49 1188.5L3573.44 1188.5C3678.37 1188.5 3763.44 1273.56 3763.44 1378.49L3763.44 2694.51C3763.44 2799.44 3678.37 2884.5 3573.44 2884.5L2813.49 2884.5C2708.56 2884.5 2623.5 2799.44 2623.5 2694.51Z" stroke="#192D54" stroke-width="4.58333" stroke-miterlimit="8" fill="#FFF2CA" fill-rule="evenodd"/><rect x="2716.5" y="1821.5" width="728" height="253" stroke="#192D54" stroke-width="4.58333" stroke-miterlimit="8" fill="#FEE695"/><text font-family="Microsoft YaHei,Microsoft YaHei_MSFontService,sans-serif" font-weight="700" font-size="83" transform="matrix(1 0 0 1 2982.46 1927)">Pose</text><text font-family="Microsoft YaHei,Microsoft YaHei_MSFontService,sans-serif" font-weight="700" font-size="83" transform="matrix(1 0 0 1 2880.73 2026)">Estimator</text><path d="M146.499 0 993.5 0C1074.41-1.81422e-14 1140 65.5903 1140 146.5L1140 293 0 293 0 146.5C0 65.5903 65.59-5.44266e-14 146.499-7.25688e-14Z" stroke="#192D54" stroke-width="4.58333" stroke-miterlimit="8" fill="#FED961" fill-rule="evenodd" transform="matrix(1 0 0 -1 2623.5 2884.5)"/><rect x="2707" y="2658" width="878" height="160" fill="#FED961"/><text font-family="Microsoft YaHei,Microsoft YaHei_MSFontService,sans-serif" font-weight="700" font-size="83" transform="matrix(1 0 0 1 2739.97 2753)">Pose Estimation</text><rect x="3556.5" y="1298.5" width="145" height="1422" stroke="#192D54" stroke-width="4.58333" stroke-miterlimit="8" fill="#FEE695"/><rect x="3556.5" y="1298.5" width="145" height="124" stroke="#192D54" stroke-width="4.58333" stroke-miterlimit="8" fill="#767171"/><path d="M3444 1940.12 3521.67 1940.13 3521.67 1953.88 3444 1953.88ZM3514.8 1926.38 3556.05 1947 3514.8 1967.63Z" fill="#B58B02"/><text font-family="Microsoft YaHei,Microsoft YaHei_MSFontService,sans-serif" font-weight="700" font-size="83" transform="matrix(-1.83697e-16 -1 1 -1.83697e-16 3643.69 2640)">FIFO queue</text><rect x="3560.5" y="1422.5" width="141" height="124" stroke="#192D54" stroke-width="4.58333" stroke-miterlimit="8" fill="#F5B482"/><rect x="3556.5" y="1546.5" width="145" height="124" stroke="#192D54" stroke-width="4.58333" stroke-miterlimit="8" fill="#91ACE0"/><rect x="3556.5" y="1670.5" width="145" height="124" stroke="#192D54" stroke-width="4.58333" stroke-miterlimit="8" fill="#FED961"/><path d="M3911.5 1378.49C3911.5 1273.56 3996.56 1188.5 4101.49 1188.5L4861.44 1188.5C4966.37 1188.5 5051.44 1273.56 5051.44 1378.49L5051.44 2694.51C5051.44 2799.44 4966.37 2884.5 4861.44 2884.5L4101.49 2884.5C3996.56 2884.5 3911.5 2799.44 3911.5 2694.51Z" stroke="#192D54" stroke-width="4.58333" stroke-miterlimit="8" fill="#E3F2D9" fill-rule="evenodd"/><rect x="4120.5" y="1479.5" width="728" height="253" stroke="#192D54" stroke-width="4.58333" stroke-miterlimit="8" fill="#C8E5B3"/><text font-family="Microsoft YaHei,Microsoft YaHei_MSFontService,sans-serif" font-weight="700" font-size="83" transform="matrix(1 0 0 1 4272.06 1635)">Pose NMS</text><path d="M146.499 0 993.5 0C1074.41-1.81422e-14 1140 65.5903 1140 146.5L1140 293 0 293 0 146.5C0 65.5903 65.59-5.44266e-14 146.499-7.25688e-14Z" stroke="#192D54" stroke-width="4.58333" stroke-miterlimit="8" fill="#ACD78E" fill-rule="evenodd" transform="matrix(1 0 0 -1 3911.5 2884.5)"/><rect x="4050" y="2660" width="878" height="134" fill="#ACD78E"/><text font-family="Microsoft YaHei,Microsoft YaHei_MSFontService,sans-serif" font-weight="700" font-size="83" transform="matrix(1 0 0 1 4083.24 2756)">Post</text><text font-family="Microsoft YaHei,Microsoft YaHei_MSFontService,sans-serif" font-weight="700" font-size="83" transform="matrix(1 0 0 1 4260.32 2756)">-</text><text font-family="Microsoft YaHei,Microsoft YaHei_MSFontService,sans-serif" font-weight="700" font-size="83" transform="matrix(1 0 0 1 4296.41 2756)">processing</text><rect x="4127.5" y="2112.5" width="727" height="253" stroke="#192D54" stroke-width="4.58333" stroke-miterlimit="8" fill="#C8E5B3"/><text font-family="Microsoft YaHei,Microsoft YaHei_MSFontService,sans-serif" font-weight="700" font-size="83" transform="matrix(1 0 0 1 4351.44 2268)">Saving</text><path d="M5199.5 1378.49C5199.5 1273.56 5284.56 1188.5 5389.49 1188.5L6149.44 1188.5C6254.37 1188.5 6339.44 1273.56 6339.44 1378.49L6339.44 2694.51C6339.44 2799.44 6254.37 2884.5 6149.44 2884.5L5389.49 2884.5C5284.56 2884.5 5199.5 2799.44 5199.5 2694.51Z" stroke="#192D54" stroke-width="4.58333" stroke-miterlimit="8" fill="#D4F4F1" fill-rule="evenodd"/><rect x="5408.5" y="1479.5" width="728" height="253" stroke="#192D54" stroke-width="4.58333" stroke-miterlimit="8" fill="#A9E9E4"/><text font-family="Microsoft YaHei,Microsoft YaHei_MSFontService,sans-serif" font-weight="700" font-size="83" transform="matrix(1 0 0 1 5577.61 1585)">Topology </text><text font-family="Microsoft YaHei,Microsoft YaHei_MSFontService,sans-serif" font-weight="700" font-size="83" transform="matrix(1 0 0 1 5538.79 1684)">Conversion</text><path d="M146.499 0 993.5 0C1074.41-1.81422e-14 1140 65.5903 1140 146.5L1140 293 0 293 0 146.5C0 65.5903 65.59-5.44266e-14 146.499-7.25688e-14Z" stroke="#192D54" stroke-width="4.58333" stroke-miterlimit="8" fill="#7DDFD6" fill-rule="evenodd" transform="matrix(1 0 0 -1 5199.5 2884.5)"/><rect x="5340" y="2663" width="888" height="133" fill="#7DDFD6"/><text font-family="Microsoft YaHei,Microsoft YaHei_MSFontService,sans-serif" font-weight="700" font-size="83" transform="matrix(1 0 0 1 5372.51 2758)">Skeleton Transform</text><rect x="5415.5" y="2112.5" width="727" height="253" stroke="#192D54" stroke-width="4.58333" stroke-miterlimit="8" fill="#A9E9E4"/><text font-family="Microsoft YaHei,Microsoft YaHei_MSFontService,sans-serif" font-weight="700" font-size="83" transform="matrix(1 0 0 1 5672.05 2219)">Scale </text><text font-family="Microsoft YaHei,Microsoft YaHei_MSFontService,sans-serif" font-weight="700" font-size="83" transform="matrix(1 0 0 1 5545.07 2318)">Conversion</text><path d="M-119 1353.12 975.604 1353.13 975.604 1366.88-119 1366.87ZM968.729 1339.38 1009.98 1360 968.729 1380.63Z" fill="#767171"/><path d="M1155 1353.12 2248.69 1353.13 2248.69 1366.88 1155 1366.87ZM2241.82 1339.38 2283.07 1360 2241.82 1380.63Z" fill="#767171"/><path d="M2428 1353.12 3521.69 1353.13 3521.69 1366.88 2428 1366.87ZM3514.82 1339.38 3556.07 1360 3514.82 1380.63Z" fill="#767171"/><path d="M1155 1477.12 2248.69 1477.13 2248.69 1490.88 1155 1490.88ZM2241.82 1463.38 2283.07 1484 2241.82 1504.63Z" fill="#C65F10"/><path d="M2428 1477.12 3525.97 1477.13 3525.97 1490.88 2428 1490.88ZM3519.1 1463.38 3560.35 1484 3519.1 1504.63Z" fill="#C65F10"/><path d="M2428 1601.13 3521.69 1601.13 3521.69 1614.88 2428 1614.88ZM3514.82 1587.38 3556.07 1608 3514.82 1628.63Z" fill="#2E54A1"/><path d="M-118.5 1691.19 26.2253 1691.19 26.2253 1711.81-118.5 1711.81ZM15.9129 1670.56 77.7878 1701.5 15.9128 1732.44Z" fill="#767171"/><path d="M1155.5 1860.19 1300.22 1860.19 1300.22 1880.81 1155.5 1880.81ZM1289.91 1839.56 1351.79 1870.5 1289.91 1901.44Z" fill="#C65F10"/><path d="M2427.5 1951.19 2572.37 1951.19 2572.37 1971.81 2427.5 1971.81ZM2562.05 1930.56 2623.93 1961.5 2562.05 1992.44Z" fill="#2E54A1"/><path d="M3698.5 2068.19 3860.22 2068.19 3860.22 2088.81 3698.5 2088.81ZM3849.91 2047.56 3911.78 2078.5 3849.91 2109.44Z" fill="#B58B02"/><path d="M5051.5 2234.19 5148.14 2234.19 5148.14 2254.81 5051.5 2254.81ZM5137.83 2213.56 5199.7 2244.5 5137.83 2275.44Z" fill="#249087"/></g></svg>