<svg width="3809" height="2399" xmlns="http://www.w3.org/2000/svg" xmlns:xlink="http://www.w3.org/1999/xlink" xml:space="preserve" overflow="hidden"><g transform="translate(-310 -23)"><path d="M6.875-5.44972e-06 6.87533 420.903-6.87467 420.903-6.875 5.44972e-06ZM20.6253 414.028 0.000360892 455.278-20.6247 414.028Z" transform="matrix(1 0 0 -1 1183 2048.28)"/><path d="M0-6.875 770.764-6.875 770.764 124.514 757.014 124.514 757.014 0 763.889 6.875 0 6.875ZM784.514 117.639 763.889 158.889 743.264 117.639Z" transform="matrix(1 0 0 -1 1147 1751.89)"/><path d="M1146.95 1758.76 483.125 1758.76 483.125 1627.37 496.875 1627.37 496.875 1751.89 490 1745.01 1146.95 1745.01ZM469.375 1634.25 490 1593 510.625 1634.25Z"/><rect x="312.5" y="1385.5" width="355" height="208" stroke="#192D54" stroke-width="4.58333" stroke-miterlimit="8" fill="#14CFE0"/><path d="M415.686 1449.41 438.084 1449.41 437.493 1452.04C435.881 1452.15 434.619 1452.62 433.706 1453.46 432.793 1454.31 432.157 1455.45 431.799 1456.9 431.441 1458.35 431.262 1460.4 431.262 1463.05L431.262 1464.88C431.262 1465.52 431.28 1466.18 431.316 1466.87L431.799 1487.87C431.835 1489.41 431.853 1493.22 431.853 1499.31L431.799 1510.53 432.337 1510.53 462.039 1449.41 470.149 1449.41 470.149 1485.23C470.149 1491.14 469.988 1499.58 469.666 1510.53L470.203 1510.53 491.956 1468.48C492.779 1466.9 493.648 1465.05 494.561 1462.92 495.474 1460.79 495.93 1458.95 495.93 1457.41 495.93 1454.4 494.14 1452.61 490.559 1452.04L491.15 1449.41 513.118 1449.41 512.527 1452.04C510.88 1452.26 509.304 1453.16 507.8 1454.75 506.296 1456.35 504.291 1459.45 501.785 1464.07L469.504 1523.42 461.233 1523.42 461.233 1484.11C461.233 1477.73 461.394 1471.09 461.716 1464.18L461.179 1464.18 432.444 1523.42 424.011 1523.42 421.487 1463.7C421.344 1460.72 421.03 1458.45 420.547 1456.87 420.064 1455.3 419.41 1454.15 418.587 1453.44 417.763 1452.72 416.599 1452.26 415.095 1452.04Z" fill="#FFFFFF" fill-rule="evenodd"/><text fill="#000000" fill-opacity="0" font-family="Arial,Arial_MSFontService,sans-serif" font-size="74.0137" x="415.095" y="1514.17">ğ‘Š</text><path d="M517.638 1509.17C516.102 1509.17 514.676 1509.5 513.361 1510.16 512.046 1510.83 510.842 1511.74 509.748 1512.9 508.654 1514.06 507.678 1515.4 506.818 1516.92 505.959 1518.44 505.236 1520.07 504.65 1521.8 504.064 1523.54 503.622 1525.31 503.322 1527.12 503.023 1528.93 502.873 1530.69 502.873 1532.41 502.873 1535.22 503.27 1537.31 504.064 1538.68 504.859 1540.05 506.141 1540.73 507.912 1540.73 509.136 1540.73 510.471 1540.31 511.916 1539.46 513.361 1538.61 514.767 1537.42 516.135 1535.89 517.502 1534.35 518.745 1532.49 519.865 1530.32 520.985 1528.15 521.831 1525.73 522.404 1523.07 522.743 1521.67 523.029 1520.25 523.263 1518.84 523.498 1517.42 523.615 1516.13 523.615 1514.99 523.615 1512.88 523.14 1511.38 522.189 1510.5 521.239 1509.61 519.722 1509.17 517.638 1509.17ZM516.935 1505.3C518.915 1505.3 520.692 1505.54 522.267 1506.02 523.843 1506.5 525.295 1507.16 526.623 1508L530.334 1505.3 533.498 1506.12C531.779 1513.85 530.08 1521.51 528.4 1529.09 526.721 1536.67 525.151 1543.8 523.693 1550.5 523.198 1552.29 522.951 1553.75 522.951 1554.87 522.951 1555.83 523.316 1556.52 524.045 1556.92 524.774 1557.32 526.024 1557.6 527.795 1557.76L527.248 1560.34 513.849 1560.34C514.943 1556.07 515.965 1552.1 516.916 1548.44 517.866 1544.79 518.901 1540.82 520.021 1536.55L519.396 1536.39C518.094 1538.09 516.825 1539.53 515.588 1540.73 514.351 1541.93 513.14 1542.91 511.955 1543.68 510.77 1544.45 509.585 1545.01 508.4 1545.36 507.215 1545.71 506.024 1545.89 504.826 1545.89 501.727 1545.89 499.331 1544.77 497.638 1542.55 495.946 1540.32 495.099 1537.08 495.099 1532.84 495.099 1530.31 495.366 1527.88 495.9 1525.55 496.434 1523.22 497.189 1521.04 498.166 1518.99 499.142 1516.95 500.308 1515.09 501.662 1513.41 503.016 1511.73 504.5 1510.29 506.115 1509.09 507.73 1507.89 509.448 1506.96 511.271 1506.3 513.094 1505.63 514.982 1505.3 516.935 1505.3Z" fill="#FFFFFF" fill-rule="evenodd"/><text fill="#000000" fill-opacity="0" font-family="Arial,Arial_MSFontService,sans-serif" font-size="55.0391" x="495.099" y="1553.46">ğ‘</text><rect x="1023.5" y="1385.5" width="354" height="208" stroke="#192D54" stroke-width="4.58333" stroke-miterlimit="8" fill="#14CFE0"/><path d="M1121.34 1452.51 1143.73 1452.51 1143.14 1455.15C1141.53 1455.25 1140.27 1455.73 1139.36 1456.57 1138.44 1457.41 1137.81 1458.56 1137.45 1460.01 1137.09 1461.46 1136.91 1463.51 1136.91 1466.16L1136.91 1467.98C1136.91 1468.63 1136.93 1469.29 1136.97 1469.97L1137.45 1490.97C1137.49 1492.51 1137.5 1496.32 1137.5 1502.41L1137.45 1513.64 1137.99 1513.64 1167.69 1452.51 1175.8 1452.51 1175.8 1488.34C1175.8 1494.25 1175.64 1502.68 1175.32 1513.64L1175.85 1513.64 1197.61 1471.58C1198.43 1470.01 1199.3 1468.15 1200.21 1466.02 1201.12 1463.89 1201.58 1462.06 1201.58 1460.52 1201.58 1457.51 1199.79 1455.72 1196.21 1455.15L1196.8 1452.51 1218.77 1452.51 1218.18 1455.15C1216.53 1455.36 1214.95 1456.27 1213.45 1457.86 1211.95 1459.45 1209.94 1462.56 1207.43 1467.18L1175.15 1526.53 1166.88 1526.53 1166.88 1487.21C1166.88 1480.84 1167.04 1474.2 1167.37 1467.28L1166.83 1467.28 1138.09 1526.53 1129.66 1526.53 1127.14 1466.8C1126.99 1463.83 1126.68 1461.56 1126.2 1459.98 1125.71 1458.4 1125.06 1457.26 1124.24 1456.54 1123.41 1455.83 1122.25 1455.36 1120.75 1455.15Z" fill="#FFFFFF" fill-rule="evenodd"/><text fill="#000000" fill-opacity="0" font-family="Arial,Arial_MSFontService,sans-serif" font-size="74.0137" x="1120.75" y="1517.28">ğ‘Š</text><path d="M1225.87 1494.97 1228.68 1494.97 1221.81 1525.36 1222.9 1525.36C1223.89 1525.36 1224.96 1525.15 1226.11 1524.73 1227.25 1524.32 1228.39 1523.78 1229.52 1523.11 1230.66 1522.45 1231.74 1521.7 1232.79 1520.87 1233.83 1520.03 1234.75 1519.19 1235.54 1518.35 1236.33 1517.5 1236.97 1516.7 1237.43 1515.94 1237.9 1515.19 1238.14 1514.55 1238.14 1514.03 1238.14 1513.41 1237.93 1512.9 1237.51 1512.51 1237.1 1512.12 1236.34 1511.86 1235.25 1511.73L1235.72 1509.23 1249.78 1509.23 1250.76 1511.65C1249.11 1513.05 1247.54 1514.36 1246.03 1515.55 1244.52 1516.75 1243.04 1517.9 1241.59 1519.01 1240.15 1520.12 1238.7 1521.2 1237.26 1522.27 1235.81 1523.34 1234.34 1524.45 1232.83 1525.59 1233.45 1527.57 1234.09 1529.58 1234.74 1531.63 1235.39 1533.67 1236.04 1535.7 1236.69 1537.7 1237.01 1538.77 1237.3 1539.69 1237.57 1540.46 1237.84 1541.22 1238.14 1541.85 1238.45 1542.33 1238.76 1542.81 1239.1 1543.17 1239.47 1543.41 1239.83 1543.64 1240.27 1543.76 1240.79 1543.76 1241.16 1543.76 1241.54 1543.69 1241.93 1543.56 1242.32 1543.43 1242.75 1543.2 1243.24 1542.86 1243.72 1542.52 1244.26 1542.06 1244.88 1541.47 1245.49 1540.89 1246.18 1540.15 1246.97 1539.26L1249.62 1541.8C1248.4 1543.05 1247.26 1544.13 1246.2 1545.05 1245.15 1545.96 1244.15 1546.71 1243.2 1547.29 1242.25 1547.88 1241.33 1548.31 1240.44 1548.58 1239.56 1548.85 1238.66 1548.99 1237.75 1548.99 1236.11 1548.99 1234.79 1548.58 1233.78 1547.76 1232.78 1546.94 1231.93 1545.77 1231.22 1544.25 1230.52 1542.72 1229.88 1540.88 1229.29 1538.72 1228.7 1536.56 1228.02 1534.15 1227.24 1531.49 1227.06 1530.87 1226.88 1530.36 1226.71 1529.99 1226.54 1529.61 1226.33 1529.32 1226.07 1529.13 1225.81 1528.93 1225.48 1528.81 1225.09 1528.76 1224.7 1528.7 1224.21 1528.68 1223.61 1528.68L1221.11 1528.68 1216.81 1548.29 1209.31 1548.29 1218.76 1506.34C1219.08 1504.95 1219.3 1503.87 1219.43 1503.07 1219.56 1502.28 1219.62 1501.57 1219.62 1500.94 1219.62 1500.45 1219.54 1500.02 1219.37 1499.66 1219.2 1499.29 1218.92 1499 1218.53 1498.78 1218.14 1498.56 1217.62 1498.39 1216.97 1498.29 1216.32 1498.18 1215.51 1498.12 1214.54 1498.09L1215.13 1495.44Z" fill="#FFFFFF" fill-rule="evenodd"/><text fill="#000000" fill-opacity="0" font-family="Arial,Arial_MSFontService,sans-serif" font-size="54.0234" x="1209.31" y="1542.24">ğ‘˜</text><rect x="1733.5" y="1385.5" width="355" height="208" stroke="#192D54" stroke-width="4.58333" stroke-miterlimit="8" fill="#14CFE0"/><path d="M1838.15 1452.51 1860.54 1452.51 1859.95 1455.15C1858.34 1455.25 1857.08 1455.73 1856.17 1456.57 1855.25 1457.41 1854.62 1458.56 1854.26 1460.01 1853.9 1461.46 1853.72 1463.51 1853.72 1466.16L1853.72 1467.98C1853.72 1468.63 1853.74 1469.29 1853.78 1469.97L1854.26 1490.97C1854.3 1492.51 1854.31 1496.32 1854.31 1502.41L1854.26 1513.64 1854.8 1513.64 1884.5 1452.51 1892.61 1452.51 1892.61 1488.34C1892.61 1494.25 1892.45 1502.68 1892.13 1513.64L1892.66 1513.64 1914.42 1471.58C1915.24 1470.01 1916.11 1468.15 1917.02 1466.02 1917.93 1463.89 1918.39 1462.06 1918.39 1460.52 1918.39 1457.51 1916.6 1455.72 1913.02 1455.15L1913.61 1452.51 1935.58 1452.51 1934.99 1455.15C1933.34 1455.36 1931.77 1456.27 1930.26 1457.86 1928.76 1459.45 1926.75 1462.56 1924.25 1467.18L1891.97 1526.53 1883.69 1526.53 1883.69 1487.21C1883.69 1480.84 1883.85 1474.2 1884.18 1467.28L1883.64 1467.28 1854.9 1526.53 1846.47 1526.53 1843.95 1466.8C1843.8 1463.83 1843.49 1461.56 1843.01 1459.98 1842.52 1458.4 1841.87 1457.26 1841.05 1456.54 1840.22 1455.83 1839.06 1455.36 1837.56 1455.15Z" fill="#FFFFFF" fill-rule="evenodd"/><text fill="#000000" fill-opacity="0" font-family="Arial,Arial_MSFontService,sans-serif" font-size="74.0137" x="1837.56" y="1517.28">ğ‘Š</text><path d="M1927.44 1508.41C1928.56 1508.41 1929.47 1508.63 1930.16 1509.07 1930.85 1509.51 1931.39 1510.09 1931.8 1510.81 1932.2 1511.52 1932.48 1512.31 1932.62 1513.17 1932.76 1514.03 1932.83 1514.88 1932.83 1515.71 1932.83 1516.2 1932.78 1516.87 1932.68 1517.7L1930.22 1531.84C1929.98 1533.2 1929.79 1534.53 1929.63 1535.83 1929.47 1537.13 1929.4 1538.28 1929.4 1539.26 1929.4 1540.25 1929.46 1541.06 1929.59 1541.69 1929.72 1542.31 1929.85 1542.62 1929.98 1542.62 1930.82 1542.62 1931.88 1542.29 1933.19 1541.63 1934.49 1540.96 1935.86 1540.05 1937.31 1538.89 1938.75 1537.73 1940.2 1536.36 1941.64 1534.77 1943.09 1533.18 1944.38 1531.46 1945.53 1529.6 1946.67 1527.73 1947.61 1525.78 1948.32 1523.74 1949.04 1521.69 1949.4 1519.63 1949.4 1517.55 1949.4 1516.32 1949.17 1515.44 1948.71 1514.89 1948.26 1514.34 1947.64 1514.07 1946.86 1514.07 1946.02 1514.07 1945.14 1514.47 1944.2 1515.26 1943.26 1516.06 1942.29 1517.09 1941.27 1518.37L1938.97 1516.06C1939.59 1515.05 1940.33 1514.08 1941.19 1513.15 1942.05 1512.23 1942.96 1511.41 1943.93 1510.71 1944.89 1510.01 1945.89 1509.45 1946.92 1509.03 1947.94 1508.61 1948.95 1508.41 1949.94 1508.41 1952 1508.41 1953.48 1509.05 1954.4 1510.34 1955.31 1511.63 1955.76 1513.35 1955.76 1515.51 1955.76 1516.76 1955.54 1518.2 1955.08 1519.81 1954.62 1521.43 1953.98 1523.13 1953.15 1524.93 1952.31 1526.73 1951.32 1528.57 1950.18 1530.46 1949.03 1532.34 1947.76 1534.18 1946.37 1535.96 1944.98 1537.75 1943.49 1539.43 1941.92 1541 1940.34 1542.58 1938.7 1543.95 1936.99 1545.12 1935.29 1546.3 1933.56 1547.23 1931.8 1547.92 1930.04 1548.61 1928.29 1548.95 1926.54 1548.95 1925.61 1548.95 1924.83 1548.76 1924.2 1548.39 1923.58 1548.01 1923.09 1547.47 1922.76 1546.78 1922.42 1546.09 1922.18 1545.28 1922.05 1544.34 1921.92 1543.41 1921.86 1542.38 1921.86 1541.26 1921.86 1539.77 1921.95 1538.18 1922.13 1536.49 1922.31 1534.8 1922.55 1533.09 1922.83 1531.37 1924.21 1523.01 1924.9 1518.16 1924.9 1516.8 1924.96 1515.84 1924.85 1515.18 1924.57 1514.83 1924.3 1514.48 1923.91 1514.3 1923.42 1514.3 1922.9 1514.3 1922.35 1514.45 1921.76 1514.73 1921.17 1515.02 1920.58 1515.38 1919.98 1515.83 1919.38 1516.27 1918.8 1516.75 1918.24 1517.25 1917.68 1517.76 1917.16 1518.24 1916.66 1518.68L1914.51 1516.06C1915.37 1515.15 1916.29 1514.24 1917.27 1513.33 1918.24 1512.42 1919.28 1511.59 1920.37 1510.85 1921.47 1510.1 1922.61 1509.51 1923.81 1509.07 1925.01 1508.63 1926.22 1508.41 1927.44 1508.41Z" fill="#FFFFFF" fill-rule="evenodd"/><text fill="#000000" fill-opacity="0" font-family="Arial,Arial_MSFontService,sans-serif" font-size="40.5469" x="1914.51" y="1543.88">ğ‘£</text><g><g><g><path d="M817.5 965.625C857.747 965.625 890.375 998.253 890.375 1038.5 890.375 1078.75 857.747 1111.37 817.5 1111.37 777.253 1111.37 744.625 1078.75 744.625 1038.5 744.625 998.253 777.253 965.625 817.5 965.625ZM817.5 978.875C784.57 978.875 757.875 1005.57 757.875 1038.5 757.875 1071.43 784.57 1098.12 817.5 1098.12 850.43 1098.12 877.125 1071.43 877.125 1038.5 877.125 1005.57 850.43 978.875 817.5 978.875ZM801.103 1012.74 817.5 1029.13 833.897 1012.73C835.19 1011.44 837.287 1011.44 838.581 1012.73L843.265 1017.42C844.558 1018.71 844.558 1020.81 843.265 1022.1L826.868 1038.5 843.265 1054.9C844.558 1056.19 844.558 1058.29 843.265 1059.58L838.581 1064.26C837.287 1065.56 835.19 1065.56 833.897 1064.26L817.5 1047.87 801.103 1064.26C799.81 1065.56 797.713 1065.56 796.419 1064.26L791.735 1059.58C790.442 1058.29 790.442 1056.19 791.735 1054.9L808.126 1038.5 791.729 1022.1C790.436 1020.81 790.436 1018.71 791.729 1017.42L796.416 1012.74C797.709 1011.44 799.806 1011.44 801.1 1012.74Z"/></g></g></g><path d="M0-6.875 353.68-6.875 353.68 268.888 339.93 268.888 339.93 0 346.805 6.875 0 6.875ZM367.43 262.013 346.805 303.263 326.18 262.013Z" transform="matrix(-1.83697e-16 -1 -1 1.83697e-16 1200.26 1384.81)"/><path d="M483.125 1384.81 483.125 1031.13 703.888 1031.13 703.888 1044.88 490 1044.88 496.875 1038 496.875 1384.81ZM697.013 1017.38 738.263 1038 697.013 1058.63Z"/><rect x="595.5" y="623.5" width="443" height="207" stroke="#192D54" stroke-width="4.58333" stroke-miterlimit="8" fill="#14CFE0"/><text fill="#FFFFFF" font-family="Calibri,Calibri_MSFontService,sans-serif" font-weight="400" font-size="110" transform="matrix(1 0 0 1 633.328 763)">Softmax</text><path d="M810.341 958.398 809.451 864.439 823.2 864.309 824.09 958.268ZM795.767 871.444 816 830 837.015 871.053Z"/><g><g><g><path d="M142.655 52.1072C139.175 43.8799 134.195 36.492 127.851 30.1489 121.508 23.8057 114.12 18.825 105.893 15.3451 97.3725 11.7412 88.3245 9.91389 79.0001 9.91389 69.6756 9.91389 60.6276 11.7412 52.1072 15.345 43.8799 18.8249 36.492 23.8056 30.1489 30.1487 23.8057 36.4919 18.825 43.8798 15.3451 52.107 11.7412 60.6276 9.91389 69.6756 9.91389 79.0001 9.91389 88.3245 11.7412 97.3725 15.345 105.893 18.8249 114.12 23.8056 121.508 30.1487 127.851 36.4919 134.195 43.8798 139.175 52.107 142.655 60.6275 146.259 69.6756 148.086 78.9999 148.086 88.3242 148.086 97.3724 146.259 105.893 142.655 114.12 139.175 121.508 134.195 127.851 127.851 134.195 121.508 139.175 114.12 142.655 105.893 146.259 97.3725 148.086 88.3245 148.086 79.0001 148.086 69.6756 146.259 60.6276 142.655 52.1072ZM79.0001 138.289C46.3081 138.289 19.7111 111.692 19.7111 79.0001 19.7111 46.3081 46.3081 19.7111 79.0001 19.7111 111.692 19.7111 138.289 46.3081 138.289 79.0001 138.289 111.692 111.692 138.289 79.0001 138.289Z" fill="#070102" transform="matrix(1.00633 0 0 1 1831 1118)"/><path d="M114.18 74.0626 83.9376 74.0626 83.9376 43.8204C83.9376 41.4343 81.727 39.5 79.0001 39.5 76.2732 39.5 74.0626 41.4343 74.0626 43.8204L74.0626 74.0626 43.8204 74.0626C41.4343 74.0626 39.5 76.2732 39.5 79.0001 39.5 81.727 41.4343 83.9376 43.8204 83.9376L74.0626 83.9376 74.0626 114.18C74.0626 116.566 76.2732 118.5 79.0001 118.5 81.727 118.5 83.9376 116.566 83.9376 114.18L83.9376 83.9376 114.18 83.9376C116.566 83.9376 118.5 81.727 118.5 79.0001 118.5 76.2732 116.566 74.0626 114.18 74.0626Z" fill="#070102" transform="matrix(1.00633 0 0 1 1831 1118)"/></g></g></g><path d="M2355.5 1427.5 2341.5 1483.5 2240.5 1483.5 2226.5 1427.5Z" stroke="#FED961" stroke-width="4.58333" stroke-miterlimit="8" fill="#ED7D31" fill-rule="evenodd"/><path d="M0 56 14 0 115 0 129 56Z" stroke="#FED961" stroke-width="4.58333" stroke-miterlimit="8" fill="#ED7D31" fill-rule="evenodd" transform="matrix(-1 0 0 1 2355.5 1482.5)"/><path d="M0-6.875 387.096-6.875 387.096 112.292 373.346 112.292 373.346 0 380.221 6.875 0 6.875ZM400.846 105.417 380.221 146.667 359.596 105.417Z" transform="matrix(1 0 0 -1 1910 1684.67)"/><path d="M6.875-2.28737e-05 6.87525 74.0959-6.87475 74.0959-6.875 2.28737e-05ZM20.6252 67.2208 0.000360892 108.471-20.6248 67.221Z" transform="matrix(1 0 0 -1 1910 1384.47)"/><path d="M0-6.875 237.321-6.875 237.321 266.41 223.571 266.41 223.571 0 230.446 6.875 0 6.875ZM251.071 259.535 230.446 300.785 209.821 259.535Z" transform="matrix(-1.83697e-16 -1 -1 1.83697e-16 2290.78 1427.45)"/><g><g><g><path d="M1419.5 427.625C1459.75 427.625 1492.38 460.253 1492.38 500.5 1492.38 540.747 1459.75 573.375 1419.5 573.375 1379.25 573.375 1346.62 540.747 1346.62 500.5 1346.62 460.253 1379.25 427.625 1419.5 427.625ZM1419.5 440.875C1386.57 440.875 1359.87 467.57 1359.87 500.5 1359.87 533.43 1386.57 560.125 1419.5 560.125 1452.43 560.125 1479.12 533.43 1479.12 500.5 1479.12 467.57 1452.43 440.875 1419.5 440.875ZM1403.1 474.735 1419.5 491.126 1435.9 474.729C1437.19 473.436 1439.29 473.436 1440.58 474.729L1445.26 479.416C1446.56 480.709 1446.56 482.806 1445.26 484.1L1428.87 500.5 1445.26 516.897C1446.56 518.19 1446.56 520.287 1445.26 521.581L1440.58 526.265C1439.29 527.558 1437.19 527.558 1435.9 526.265L1419.5 509.868 1403.1 526.265C1401.81 527.558 1399.71 527.558 1398.42 526.265L1393.74 521.581C1392.44 520.287 1392.44 518.19 1393.74 516.897L1410.13 500.5 1393.73 484.103C1392.44 482.81 1392.44 480.713 1393.73 479.419L1398.42 474.735C1399.71 473.442 1401.81 473.442 1403.1 474.735Z"/></g></g></g><path d="M809.125 622.222 809.125 493.125 1305.34 493.125 1305.34 506.875 816 506.875 822.875 500 822.875 622.222ZM1298.46 479.375 1339.71 500 1298.46 520.625Z"/><path d="M0-6.875 624.097-6.875 624.097 377.361 610.347 377.361 610.347 0 617.222 6.875 0 6.875ZM637.847 370.486 617.222 411.736 596.597 370.486Z" transform="matrix(-1.83697e-16 -1 -1 1.83697e-16 1910.74 1117.22)"/><rect x="1242.5" y="153.5" width="355" height="208" stroke="#192D54" stroke-width="4.58333" stroke-miterlimit="8" fill="#14CFE0"/><path d="M1345.96 220.363 1368.35 220.363 1367.76 222.995C1366.15 223.103 1364.89 223.577 1363.98 224.418 1363.06 225.26 1362.43 226.406 1362.07 227.856 1361.71 229.306 1361.53 231.356 1361.53 234.006L1361.53 235.832C1361.53 236.477 1361.55 237.139 1361.59 237.819L1362.07 258.82C1362.11 260.36 1362.12 264.173 1362.12 270.261L1362.07 281.486 1362.61 281.486 1392.31 220.363 1400.42 220.363 1400.42 256.188C1400.42 262.097 1400.26 270.529 1399.94 281.486L1400.47 281.486 1422.23 239.431C1423.05 237.855 1423.92 236.002 1424.83 233.872 1425.74 231.741 1426.2 229.906 1426.2 228.366 1426.2 225.358 1424.41 223.568 1420.83 222.995L1421.42 220.363 1443.39 220.363 1442.8 222.995C1441.15 223.21 1439.58 224.114 1438.07 225.707 1436.57 227.301 1434.56 230.407 1432.06 235.026L1399.78 294.377 1391.5 294.377 1391.5 255.061C1391.5 248.687 1391.67 242.045 1391.99 235.134L1391.45 235.134 1362.71 294.377 1354.28 294.377 1351.76 234.65C1351.61 231.678 1351.3 229.405 1350.82 227.829 1350.33 226.254 1349.68 225.108 1348.86 224.392 1348.03 223.675 1346.87 223.21 1345.37 222.995Z" fill="#FFFFFF" fill-rule="evenodd"/><text fill="#000000" fill-opacity="0" font-family="Arial,Arial_MSFontService,sans-serif" font-size="74.0137" x="1345.37" y="285.125">ğ‘Š</text><path d="M1447.6 280.121C1446.14 280.121 1444.77 280.447 1443.5 281.098 1442.22 281.749 1441.05 282.647 1439.98 283.793 1438.91 284.939 1437.95 286.293 1437.11 287.856 1436.26 289.418 1435.55 291.098 1434.96 292.895 1434.37 294.692 1433.93 296.567 1433.61 298.52 1433.3 300.473 1433.14 302.426 1433.14 304.379 1433.14 307.374 1433.76 309.581 1435 311 1436.24 312.42 1438.12 313.129 1440.64 313.129 1442.05 313.129 1443.38 312.784 1444.63 312.094 1445.88 311.404 1447.02 310.473 1448.07 309.301 1449.11 308.129 1450.04 306.756 1450.86 305.18 1451.68 303.604 1452.38 301.918 1452.95 300.121 1453.52 298.325 1453.96 296.469 1454.26 294.555 1454.56 292.641 1454.71 290.772 1454.71 288.95 1454.71 286.059 1454.13 283.865 1452.99 282.367 1451.84 280.87 1450.04 280.121 1447.6 280.121ZM1448.34 276.254C1450.68 276.254 1452.73 276.632 1454.49 277.387 1456.25 278.142 1457.71 279.164 1458.89 280.453 1460.06 281.742 1460.94 283.259 1461.52 285.004 1462.11 286.749 1462.4 288.611 1462.4 290.59 1462.4 294.548 1461.82 298.136 1460.64 301.352 1459.47 304.568 1457.85 307.328 1455.78 309.633 1453.71 311.938 1451.28 313.715 1448.48 314.965 1445.68 316.215 1442.64 316.84 1439.35 316.84 1437.19 316.84 1435.25 316.515 1433.53 315.864 1431.82 315.213 1430.36 314.275 1429.16 313.051 1427.96 311.827 1427.04 310.349 1426.41 308.617 1425.77 306.886 1425.45 304.926 1425.45 302.739 1425.45 299.041 1426.03 295.584 1427.19 292.367 1428.35 289.151 1429.95 286.352 1431.99 283.969 1434.04 281.586 1436.45 279.705 1439.24 278.325 1442.02 276.944 1445.06 276.254 1448.34 276.254Z" fill="#FFFFFF" fill-rule="evenodd"/><text fill="#000000" fill-opacity="0" font-family="Arial,Arial_MSFontService,sans-serif" font-size="40.5859" x="1425.45" y="311.767">ğ‘œ</text><path d="M1412.13 421.346 1412.13 395.375 1425.88 395.375 1425.88 421.346ZM1398.38 402.25 1419 361 1439.63 402.25Z"/><path d="M6.875-2.87431e-05 6.87522 51.9461-6.87478 51.9462-6.875 2.87431e-05ZM20.6252 45.071 0.000360892 86.3211-20.6248 45.0712Z" transform="matrix(1 0 0 -1 1419 152.321)"/><path d="M1515 1434C1515 1171.66 1727.66 959 1990 959 2252.34 959 2465 1171.66 2465 1434 2465 1696.34 2252.34 1909 1990 1909 1727.66 1909 1515 1696.34 1515 1434Z" stroke="#000000" stroke-width="10.3125" stroke-miterlimit="8" stroke-dasharray="41.25 30.9375" fill="none" fill-rule="evenodd"/><path d="M0 0 434.722 194.927" stroke="#000000" stroke-width="10.3125" stroke-miterlimit="8" fill="none" fill-rule="evenodd" transform="matrix(1 0 0 -1 2326 1097.93)"/><path d="M2326 1770 2796.54 1941.86" stroke="#000000" stroke-width="10.3125" stroke-miterlimit="8" fill="none" fill-rule="evenodd"/><rect x="3091.5" y="1860.5" width="696" height="98" stroke="#192D54" stroke-width="4.58333" stroke-miterlimit="8" fill="#FEE695"/><rect x="2777.5" y="1038.5" width="605" height="665" stroke="#192D54" stroke-width="4.58333" stroke-miterlimit="8" fill="#14CFE0"/><text fill="#FFFFFF" font-family="Calibri,Calibri_MSFontService,sans-serif" font-weight="400" font-size="110" transform="matrix(1 0 0 1 2844.1 1208)">Pretrained</text><text fill="#FFFFFF" font-family="Calibri,Calibri_MSFontService,sans-serif" font-weight="400" font-size="110" transform="matrix(1 0 0 1 2897.77 1340)">Weights</text><path d="M2838.55 1542.02 2860.95 1542.02 2860.36 1544.66C2858.74 1544.76 2857.48 1545.24 2856.57 1546.08 2855.66 1546.92 2855.02 1548.07 2854.66 1549.52 2854.3 1550.97 2854.12 1553.02 2854.12 1555.67L2854.12 1557.49C2854.12 1558.14 2854.14 1558.8 2854.18 1559.48L2854.66 1580.48C2854.7 1582.02 2854.72 1585.83 2854.72 1591.92L2854.66 1603.15 2855.2 1603.15 2884.9 1542.02 2893.01 1542.02 2893.01 1577.85C2893.01 1583.76 2892.85 1592.19 2892.53 1603.15L2893.07 1603.15 2914.82 1561.09C2915.64 1559.52 2916.51 1557.66 2917.42 1555.53 2918.34 1553.4 2918.79 1551.57 2918.79 1550.03 2918.79 1547.02 2917 1545.23 2913.42 1544.66L2914.01 1542.02 2935.98 1542.02 2935.39 1544.66C2933.74 1544.87 2932.17 1545.78 2930.66 1547.37 2929.16 1548.96 2927.15 1552.07 2924.65 1556.69L2892.37 1616.04 2884.1 1616.04 2884.1 1576.72C2884.1 1570.35 2884.26 1563.71 2884.58 1556.79L2884.04 1556.79 2855.31 1616.04 2846.87 1616.04 2844.35 1556.31C2844.21 1553.34 2843.89 1551.07 2843.41 1549.49 2842.93 1547.91 2842.27 1546.77 2841.45 1546.05 2840.63 1545.34 2839.46 1544.87 2837.96 1544.66Z" fill="#FFFFFF" fill-rule="evenodd"/><text fill="#000000" fill-opacity="0" font-family="Arial,Arial_MSFontService,sans-serif" font-size="74.0137" x="2837.96" y="1606.79">ğ‘Š</text><path d="M2927.84 1597.92C2928.96 1597.92 2929.87 1598.14 2930.56 1598.58 2931.25 1599.02 2931.8 1599.6 2932.2 1600.32 2932.6 1601.03 2932.88 1601.82 2933.02 1602.68 2933.16 1603.54 2933.24 1604.39 2933.24 1605.22 2933.24 1605.71 2933.18 1606.38 2933.08 1607.21L2930.62 1621.35C2930.38 1622.71 2930.19 1624.03 2930.03 1625.34 2929.88 1626.64 2929.8 1627.78 2929.8 1628.77 2929.8 1629.76 2929.86 1630.57 2929.99 1631.2 2930.12 1631.82 2930.25 1632.13 2930.38 1632.13 2931.22 1632.13 2932.29 1631.8 2933.59 1631.14 2934.89 1630.47 2936.26 1629.56 2937.71 1628.4 2939.15 1627.24 2940.6 1625.87 2942.04 1624.28 2943.49 1622.69 2944.79 1620.97 2945.93 1619.11 2947.08 1617.24 2948.01 1615.29 2948.72 1613.25 2949.44 1611.2 2949.8 1609.14 2949.8 1607.06 2949.8 1605.83 2949.57 1604.95 2949.11 1604.4 2948.66 1603.85 2948.04 1603.58 2947.26 1603.58 2946.43 1603.58 2945.54 1603.98 2944.6 1604.77 2943.67 1605.56 2942.69 1606.6 2941.67 1607.88L2939.37 1605.57C2939.99 1604.56 2940.74 1603.59 2941.59 1602.66 2942.45 1601.74 2943.37 1600.92 2944.33 1600.22 2945.29 1599.52 2946.29 1598.96 2947.32 1598.54 2948.35 1598.12 2949.36 1597.92 2950.34 1597.92 2952.4 1597.92 2953.89 1598.56 2954.8 1599.85 2955.71 1601.14 2956.17 1602.86 2956.17 1605.02 2956.17 1606.27 2955.94 1607.71 2955.48 1609.32 2955.03 1610.94 2954.38 1612.64 2953.55 1614.44 2952.71 1616.24 2951.73 1618.08 2950.58 1619.97 2949.43 1621.85 2948.16 1623.69 2946.77 1625.47 2945.38 1627.26 2943.89 1628.94 2942.32 1630.51 2940.74 1632.09 2939.1 1633.46 2937.4 1634.63 2935.69 1635.81 2933.96 1636.74 2932.2 1637.43 2930.44 1638.12 2928.69 1638.46 2926.95 1638.46 2926.01 1638.46 2925.23 1638.27 2924.6 1637.9 2923.98 1637.52 2923.5 1636.98 2923.16 1636.29 2922.82 1635.6 2922.58 1634.79 2922.45 1633.85 2922.32 1632.92 2922.26 1631.89 2922.26 1630.77 2922.26 1629.28 2922.35 1627.69 2922.53 1626 2922.71 1624.31 2922.95 1622.6 2923.24 1620.88 2924.62 1612.52 2925.31 1607.67 2925.31 1606.31 2925.36 1605.35 2925.25 1604.69 2924.97 1604.34 2924.7 1603.99 2924.32 1603.81 2923.82 1603.81 2923.3 1603.81 2922.75 1603.96 2922.16 1604.24 2921.58 1604.53 2920.98 1604.89 2920.38 1605.34 2919.79 1605.78 2919.21 1606.26 2918.65 1606.76 2918.09 1607.27 2917.56 1607.75 2917.06 1608.19L2914.92 1605.57C2915.77 1604.66 2916.69 1603.75 2917.67 1602.84 2918.65 1601.93 2919.68 1601.1 2920.77 1600.36 2921.87 1599.61 2923.01 1599.02 2924.21 1598.58 2925.41 1598.14 2926.62 1597.92 2927.84 1597.92Z" fill="#FFFFFF" fill-rule="evenodd"/><text fill="#000000" fill-opacity="0" font-family="Arial,Arial_MSFontService,sans-serif" font-size="40.5469" x="2914.92" y="1633.39">ğ‘£</text><path d="M3033.99 1552.07 3056.01 1552.07 3056.01 1559.53 3033.93 1559.53C3030.39 1559.53 3027.52 1559.73 3025.31 1560.12 3023.11 1560.52 3021.28 1561.15 3019.81 1562.03 3018.34 1562.91 3017.01 1564.15 3015.81 1565.76 3014.61 1567.38 3013.67 1569.35 3012.99 1571.7 3012.31 1574.04 3011.88 1576.7 3011.7 1579.68L3056.01 1579.68 3056.01 1587.14 3011.64 1587.14C3011.82 1590.47 3012.31 1593.43 3013.09 1596 3013.88 1598.58 3015.07 1600.78 3016.67 1602.58 3018.26 1604.39 3020.32 1605.73 3022.84 1606.58 3025.37 1607.44 3028.85 1607.87 3033.29 1607.87L3056.01 1607.87 3056.01 1615.34 3033.08 1615.34C3029.57 1615.34 3026.52 1615.12 3023.94 1614.7 3021.37 1614.27 3019.04 1613.57 3016.96 1612.6 3014.89 1611.63 3012.92 1610.17 3011.08 1608.22 3009.24 1606.27 3007.74 1604.11 3006.6 1601.75 3005.45 1599.39 3004.59 1596.72 3004.02 1593.75 3003.44 1590.78 3003.16 1587.55 3003.16 1584.08 3003.16 1578.42 3003.71 1573.74 3004.82 1570.03 3005.93 1566.33 3007.8 1563.03 3010.41 1560.15 3013.02 1557.27 3016.16 1555.2 3019.81 1553.95 3023.46 1552.69 3028.19 1552.07 3033.99 1552.07Z" fill="#FFFFFF" fill-rule="evenodd"/><text fill="#000000" fill-opacity="0" font-family="Arial,Arial_MSFontService,sans-serif" font-size="63.2715" x="3003.16" y="1607.43">âˆˆ</text><path d="M3133.34 1546.75C3131.44 1546.75 3129.44 1546.82 3127.32 1546.97L3120.45 1578.06 3126.79 1578.06C3131.98 1578.06 3136.08 1577.37 3139.09 1575.97 3142.09 1574.57 3144.48 1572.28 3146.23 1569.09 3147.99 1565.91 3148.86 1562.47 3148.86 1558.78 3148.86 1557.24 3148.72 1555.87 3148.43 1554.67 3148.15 1553.47 3147.77 1552.48 3147.3 1551.69 3146.84 1550.9 3146.25 1550.21 3145.53 1549.6 3144.82 1548.99 3143.92 1548.46 3142.85 1548.01 3141.77 1547.57 3140.53 1547.24 3139.11 1547.05 3137.7 1546.85 3135.77 1546.75 3133.34 1546.75ZM3111.8 1542.02 3135.7 1542.02C3139.5 1542.02 3142.6 1542.25 3145 1542.7 3147.39 1543.14 3149.44 1543.81 3151.15 1544.71 3152.85 1545.6 3154.27 1546.76 3155.42 1548.17 3156.56 1549.59 3157.42 1551.18 3157.99 1552.95 3158.57 1554.73 3158.85 1556.62 3158.85 1558.62 3158.85 1564.14 3157.17 1568.83 3153.8 1572.69 3150.44 1576.56 3145.48 1579.5 3138.93 1581.5L3138.93 1582.09C3140.64 1583.38 3142.03 1584.92 3143.09 1586.71 3144.15 1588.5 3145 1590.99 3145.64 1594.18L3146.88 1600.41C3147.27 1602.38 3147.72 1604.15 3148.22 1605.73 3148.72 1607.3 3149.32 1608.55 3150.02 1609.49 3150.72 1610.42 3151.5 1611.11 3152.38 1611.58 3153.26 1612.05 3154.54 1612.42 3156.22 1612.71L3155.68 1615.34 3140.81 1615.34C3139.66 1612.15 3138.64 1608.36 3137.74 1603.95L3135.38 1592.57C3134.99 1590.6 3134.51 1588.94 3133.96 1587.6 3133.4 1586.26 3132.74 1585.22 3131.97 1584.48 3131.2 1583.75 3130.31 1583.27 3129.28 1583.03 3128.26 1582.8 3127.02 1582.68 3125.55 1582.68L3119.43 1582.68 3115.67 1599.71C3115.35 1601.11 3115.12 1602.22 3115 1603.04 3114.87 1603.86 3114.77 1604.73 3114.68 1605.64 3114.59 1606.56 3114.54 1607.37 3114.54 1608.09 3114.54 1609.2 3114.72 1610.07 3115.08 1610.69 3115.44 1611.32 3115.97 1611.78 3116.69 1612.06 3117.41 1612.35 3118.64 1612.56 3120.4 1612.71L3119.8 1615.34 3097.73 1615.34 3098.32 1612.71C3099.68 1612.49 3100.7 1612.14 3101.38 1611.66 3102.06 1611.18 3102.64 1610.51 3103.1 1609.65 3103.57 1608.79 3104 1607.74 3104.39 1606.5 3104.78 1605.27 3105.37 1602.88 3106.16 1599.33L3115.29 1557.98C3116.08 1554.4 3116.47 1551.57 3116.47 1549.49 3116.47 1547.74 3116.06 1546.52 3115.24 1545.84 3114.42 1545.16 3113.07 1544.76 3111.21 1544.66Z" fill="#FFFFFF" fill-rule="evenodd"/><text fill="#000000" fill-opacity="0" font-family="Arial,Arial_MSFontService,sans-serif" font-size="73.3154" x="3097.73" y="1606.18">ğ‘…</text><path d="M3195.33 1539.04C3193.8 1539.04 3192.37 1539.37 3191.06 1540.03 3189.74 1540.7 3188.54 1541.61 3187.44 1542.77 3186.35 1543.93 3185.37 1545.27 3184.51 1546.79 3183.65 1548.31 3182.93 1549.94 3182.35 1551.67 3181.76 1553.41 3181.32 1555.18 3181.02 1556.99 3180.72 1558.8 3180.57 1560.56 3180.57 1562.28 3180.57 1565.09 3180.97 1567.18 3181.76 1568.55 3182.55 1569.92 3183.84 1570.6 3185.61 1570.6 3186.81 1570.6 3188.13 1570.2 3189.59 1569.39 3191.05 1568.58 3192.46 1567.42 3193.83 1565.89 3195.2 1564.37 3196.45 1562.51 3197.6 1560.33 3198.75 1558.14 3199.61 1555.68 3200.18 1552.94 3200.46 1551.54 3200.73 1550.13 3200.96 1548.72 3201.19 1547.32 3201.31 1546.03 3201.31 1544.86 3201.31 1542.75 3200.84 1541.25 3199.89 1540.36 3198.93 1539.48 3197.42 1539.04 3195.33 1539.04ZM3212.52 1521.73 3214.51 1521.73 3205.45 1561.58C3205.09 1563.11 3204.85 1564.34 3204.73 1565.25 3204.61 1566.16 3204.55 1566.98 3204.55 1567.71 3204.55 1568.7 3204.76 1569.41 3205.16 1569.86 3205.56 1570.3 3206.14 1570.52 3206.9 1570.52 3207.37 1570.52 3207.83 1570.43 3208.28 1570.25 3208.74 1570.07 3209.23 1569.78 3209.77 1569.39 3210.3 1569 3210.89 1568.5 3211.53 1567.88 3212.16 1567.27 3212.89 1566.54 3213.69 1565.68 3214.11 1566.12 3214.54 1566.56 3214.98 1566.99 3215.43 1567.42 3215.86 1567.84 3216.27 1568.26 3214.97 1569.58 3213.78 1570.72 3212.72 1571.67 3211.65 1572.62 3210.61 1573.41 3209.61 1574.02 3208.61 1574.63 3207.63 1575.07 3206.66 1575.35 3205.7 1575.62 3204.7 1575.76 3203.65 1575.76 3201.78 1575.76 3200.32 1575.15 3199.28 1573.94 3198.24 1572.73 3197.72 1571.07 3197.72 1568.96 3197.72 1567.79 3197.9 1566.67 3198.26 1565.6L3197.72 1565.36C3196.39 1567.21 3195.1 1568.79 3193.85 1570.09 3192.6 1571.39 3191.36 1572.47 3190.14 1573.31 3188.92 1574.16 3187.68 1574.78 3186.43 1575.17 3185.18 1575.56 3183.88 1575.76 3182.52 1575.76 3179.42 1575.76 3177.03 1574.64 3175.33 1572.42 3173.64 1570.19 3172.8 1566.95 3172.8 1562.71 3172.8 1560.18 3173.06 1557.75 3173.6 1555.42 3174.13 1553.09 3174.89 1550.91 3175.86 1548.86 3176.84 1546.82 3178 1544.95 3179.36 1543.27 3180.71 1541.6 3182.2 1540.16 3183.81 1538.96 3185.43 1537.76 3187.14 1536.83 3188.97 1536.17 3190.79 1535.5 3192.68 1535.17 3194.63 1535.17 3196.35 1535.17 3197.93 1535.34 3199.36 1535.68 3200.79 1536.02 3202.16 1536.69 3203.46 1537.71 3203.9 1536.07 3204.25 1534.67 3204.51 1533.51 3204.77 1532.35 3204.99 1531.28 3205.16 1530.31 3205.33 1529.33 3205.41 1528.52 3205.41 1527.86 3205.41 1527.32 3205.34 1526.86 3205.2 1526.5 3205.05 1526.13 3204.8 1525.83 3204.44 1525.6 3204.07 1525.36 3203.56 1525.2 3202.89 1525.09 3202.23 1524.99 3201.39 1524.91 3200.37 1524.86L3200.88 1522.2Z" fill="#FFFFFF" fill-rule="evenodd"/><text fill="#000000" fill-opacity="0" font-family="Arial,Arial_MSFontService,sans-serif" font-size="54.0234" x="3172.8" y="1569">ğ‘‘</text><path d="M3232.92 1530.79 3250.61 1548.45 3268.31 1530.79 3271.98 1534.43 3254.48 1552.24 3272.02 1569.97 3268.11 1573.88 3250.61 1556.03 3232.57 1573.72 3228.93 1570.05 3246.78 1552.24 3229.01 1534.7Z" fill="#FFFFFF" fill-rule="evenodd"/><text fill="#000000" fill-opacity="0" font-family="Arial,Arial_MSFontService,sans-serif" font-size="43.0859" x="3228.93" y="1568.49">Ã—</text><path d="M3300.29 1521.73 3303.1 1521.73 3296.22 1552.12 3297.32 1552.12C3298.31 1552.12 3299.38 1551.91 3300.52 1551.5 3301.67 1551.08 3302.81 1550.54 3303.94 1549.88 3305.07 1549.21 3306.16 1548.46 3307.2 1547.63 3308.24 1546.8 3309.16 1545.96 3309.96 1545.11 3310.75 1544.26 3311.38 1543.46 3311.85 1542.71 3312.32 1541.95 3312.55 1541.32 3312.55 1540.79 3312.55 1540.17 3312.34 1539.66 3311.93 1539.27 3311.51 1538.88 3310.76 1538.62 3309.66 1538.49L3310.13 1535.99 3324.19 1535.99 3325.17 1538.41C3323.53 1539.82 3321.95 1541.12 3320.44 1542.32 3318.93 1543.52 3317.46 1544.67 3316.01 1545.77 3314.56 1546.88 3313.12 1547.97 3311.67 1549.04 3310.23 1550.1 3308.75 1551.21 3307.24 1552.36 3307.87 1554.34 3308.5 1556.35 3309.15 1558.39 3309.81 1560.44 3310.46 1562.46 3311.11 1564.47 3311.42 1565.53 3311.71 1566.45 3311.99 1567.22 3312.26 1567.99 3312.55 1568.61 3312.87 1569.1 3313.18 1569.58 3313.52 1569.93 3313.88 1570.17 3314.25 1570.4 3314.69 1570.52 3315.21 1570.52 3315.57 1570.52 3315.95 1570.46 3316.34 1570.33 3316.73 1570.2 3317.17 1569.96 3317.65 1569.62 3318.13 1569.28 3318.68 1568.82 3319.29 1568.24 3319.9 1567.65 3320.6 1566.91 3321.38 1566.03L3324.04 1568.57C3322.81 1569.82 3321.67 1570.9 3320.62 1571.81 3319.56 1572.72 3318.56 1573.47 3317.61 1574.06 3316.66 1574.64 3315.74 1575.07 3314.86 1575.35 3313.97 1575.62 3313.07 1575.76 3312.16 1575.76 3310.52 1575.76 3309.2 1575.35 3308.2 1574.52 3307.19 1573.7 3306.34 1572.53 3305.64 1571.01 3304.94 1569.49 3304.29 1567.64 3303.71 1565.48 3303.12 1563.32 3302.44 1560.91 3301.65 1558.26 3301.47 1557.63 3301.3 1557.13 3301.13 1556.75 3300.96 1556.37 3300.74 1556.09 3300.48 1555.89 3300.22 1555.7 3299.9 1555.57 3299.51 1555.52 3299.12 1555.47 3298.62 1555.44 3298.02 1555.44L3295.52 1555.44 3291.22 1575.05 3283.72 1575.05 3293.18 1533.1C3293.49 1531.72 3293.71 1530.63 3293.84 1529.84 3293.97 1529.04 3294.04 1528.33 3294.04 1527.71 3294.04 1527.21 3293.95 1526.78 3293.78 1526.42 3293.61 1526.05 3293.33 1525.76 3292.94 1525.54 3292.55 1525.32 3292.03 1525.16 3291.38 1525.05 3290.73 1524.95 3289.92 1524.88 3288.96 1524.86L3289.54 1522.2Z" fill="#FFFFFF" fill-rule="evenodd"/><text fill="#000000" fill-opacity="0" font-family="Arial,Arial_MSFontService,sans-serif" font-size="54.0234" x="3283.72" y="1569">ğ‘˜</text><path d="M2999.97 1899.46C3000.9 1899.46 3001.72 1899.56 3002.42 1899.77 3003.13 1899.98 3003.75 1900.3 3004.29 1900.74 3004.83 1901.17 3005.3 1901.73 3005.72 1902.42 3006.14 1903.11 3006.55 1904.05 3006.94 1905.23 3007.33 1906.41 3007.69 1907.88 3008.04 1909.63 3008.38 1911.38 3008.69 1913.2 3008.96 1915.09L3009.41 1915.09C3012.28 1911.05 3014.46 1908.09 3015.94 1906.22 3017.43 1904.34 3018.68 1902.95 3019.69 1902.04 3020.71 1901.13 3021.69 1900.48 3022.64 1900.11 3023.58 1899.73 3024.83 1899.55 3026.39 1899.55 3027.8 1899.55 3028.95 1899.73 3029.85 1900.08L3028.05 1908.22 3024.91 1908.22C3024.73 1906.96 3024.2 1906.33 3023.33 1906.33 3023.06 1906.33 3022.78 1906.37 3022.48 1906.46 3022.18 1906.55 3021.81 1906.75 3021.38 1907.05 3020.95 1907.35 3020.31 1907.93 3019.47 1908.8 3018.63 1909.67 3017.69 1910.73 3016.64 1911.99 3015.59 1913.25 3014.51 1914.56 3013.41 1915.94L3010.35 1919.76C3010.89 1922.64 3011.4 1925.12 3011.88 1927.22 3012.36 1929.31 3012.78 1931.06 3013.16 1932.45 3013.53 1933.84 3013.86 1934.94 3014.15 1935.75 3014.43 1936.56 3014.74 1937.17 3015.07 1937.57 3015.4 1937.98 3015.73 1938.26 3016.08 1938.43 3016.42 1938.59 3016.82 1938.67 3017.27 1938.67 3018.08 1938.67 3018.86 1938.36 3019.63 1937.73 3020.39 1937.1 3021.49 1935.68 3022.93 1933.46L3025.85 1935.39C3023.75 1938.51 3021.86 1940.7 3020.17 1941.97 3018.47 1943.25 3016.46 1943.88 3014.12 1943.88 3012.84 1943.88 3011.74 1943.65 3010.85 1943.19 3009.95 1942.72 3009.17 1941.98 3008.51 1940.96 3007.85 1939.95 3007.27 1938.36 3006.76 1936.2 3005.83 1932.37 3005.26 1929.43 3005.05 1927.4L3004.6 1927.4C3001.43 1931.86 2999.07 1935.06 2997.53 1937.01 2995.98 1938.96 2994.71 1940.39 2993.71 1941.32 2992.7 1942.25 2991.73 1942.9 2990.79 1943.28 2989.84 1943.65 2988.59 1943.84 2987.04 1943.84 2985.63 1943.84 2984.48 1943.66 2983.58 1943.3L2985.37 1935.17 2988.52 1935.17C2988.7 1936.43 2989.22 1937.06 2990.09 1937.06 2990.51 1937.06 2990.95 1936.94 2991.42 1936.72 2991.88 1936.49 2992.55 1935.95 2993.42 1935.1 2994.28 1934.25 2995.48 1932.91 2997.01 1931.08 2998.54 1929.25 3000.75 1926.51 3003.66 1922.86 3003.21 1920.49 3002.74 1918.22 3002.27 1916.03 3001.79 1913.85 3001.29 1911.81 3000.78 1909.92 3000.27 1908.04 2999.85 1906.8 2999.52 1906.22 2999.2 1905.63 2998.84 1905.23 2998.47 1905 2998.09 1904.78 2997.62 1904.67 2997.05 1904.67 2996.43 1904.67 2995.86 1904.81 2995.35 1905.09 2994.84 1905.38 2994.28 1905.87 2993.69 1906.58 2993.09 1907.28 2992.29 1908.38 2991.3 1909.88L2988.38 1907.95C2990.27 1905.1 2992.08 1902.97 2993.82 1901.57 2995.56 1900.16 2997.61 1899.46 2999.97 1899.46Z" fill-rule="evenodd"/><text fill="#000000" fill-opacity="0" font-family="Arial,Arial_MSFontService,sans-serif" font-size="44.4277" x="2983.58" y="1938.33">ğ‘¥</text><path d="M3787.5 1974.5C3787.5 2002.39 3783.73 2025 3779.08 2025L3447.92 2025C3443.27 2025 3439.5 2047.61 3439.5 2075.5 3439.5 2047.61 3435.73 2025 3431.08 2025L3099.92 2025C3095.27 2025 3091.5 2002.39 3091.5 1974.5" stroke="#000000" stroke-width="4.58333" stroke-miterlimit="8" fill="none" fill-rule="evenodd"/><path d="M3439.41 2132.01C3436.35 2132.01 3433.61 2133.24 3431.19 2135.72 3428.76 2138.19 3426.85 2141.52 3425.46 2145.71 3424.07 2149.9 3423.37 2154.08 3423.37 2158.24 3423.37 2161.36 3423.8 2163.69 3424.65 2165.23 3425.5 2166.77 3426.93 2167.54 3428.94 2167.54 3429.87 2167.54 3430.81 2167.34 3431.77 2166.94 3432.73 2166.53 3433.72 2165.88 3434.76 2164.98 3435.79 2164.08 3436.81 2162.99 3437.81 2161.7 3438.82 2160.41 3439.74 2159.12 3440.58 2157.82 3441.41 2156.51 3442.19 2154.97 3442.91 2153.19 3443.63 2151.41 3444.24 2149.26 3444.75 2146.74L3445.16 2144.81C3445.61 2142.66 3445.83 2140.62 3445.83 2138.7 3445.83 2136.37 3445.34 2134.67 3444.35 2133.6 3443.36 2132.54 3441.71 2132.01 3439.41 2132.01ZM3458.23 2107.93 3460.88 2107.93 3449.69 2157.66C3449.04 2160.59 3448.71 2162.81 3448.71 2164.31 3448.71 2165.51 3448.9 2166.37 3449.29 2166.91 3449.68 2167.45 3450.29 2167.72 3451.13 2167.72 3452.03 2167.72 3452.99 2167.35 3454.01 2166.62 3455.03 2165.89 3456.46 2164.49 3458.32 2162.42L3460.88 2164.94C3458.12 2167.84 3455.8 2169.89 3453.92 2171.09 3452.03 2172.29 3449.99 2172.89 3447.81 2172.89 3445.95 2172.89 3444.47 2172.27 3443.36 2171.05 3442.25 2169.82 3441.7 2168.19 3441.7 2166.15 3441.7 2164.5 3442.04 2162.75 3442.73 2160.89L3442.15 2160.71C3439.27 2164.91 3436.55 2167.98 3433.97 2169.92 3431.4 2171.87 3428.67 2172.84 3425.8 2172.84 3422.5 2172.84 3419.95 2171.6 3418.14 2169.11 3416.33 2166.63 3415.42 2163.14 3415.42 2158.65 3415.42 2153.5 3416.43 2148.55 3418.45 2143.8 3420.47 2139.05 3423.25 2135.31 3426.78 2132.57 3430.32 2129.83 3434.26 2128.46 3438.6 2128.46 3440.43 2128.46 3442.11 2128.65 3443.65 2129.02 3445.19 2129.4 3446.77 2130.05 3448.39 2130.98L3450.73 2120.6C3450.97 2119.61 3451.18 2118.52 3451.36 2117.32 3451.54 2116.12 3451.63 2115.07 3451.63 2114.18 3451.63 2113.28 3451.46 2112.6 3451.13 2112.13 3450.8 2111.67 3450.33 2111.33 3449.72 2111.12 3449.1 2110.91 3448 2110.76 3446.42 2110.67L3446.95 2108.34Z" fill-rule="evenodd"/><text fill="#000000" fill-opacity="0" font-family="Arial,Arial_MSFontService,sans-serif" font-size="64.957" x="3415.42" y="2164.77">ğ‘‘</text><path d="M4088.5 1041.5 4021.5 1309.5 3494.5 1309.5 3427.5 1041.5Z" stroke="#ED7D31" stroke-width="4.58333" stroke-miterlimit="8" fill="#ED7D31" fill-rule="evenodd"/><path d="M0 278 69.4999 0 590.5 0 660 278Z" stroke="#ED7D31" stroke-width="4.58333" stroke-miterlimit="8" fill="#ED7D31" fill-rule="evenodd" transform="matrix(-1 1.22465e-16 1.22465e-16 1 4115.5 1413.5)"/><path d="M3560.19 1542.86 3545.76 1568.39 3561.61 1568.39 3560.92 1555.34C3560.84 1553.56 3560.77 1551.33 3560.72 1548.65 3560.67 1545.98 3560.64 1544.05 3560.64 1542.86ZM3560.44 1534.31 3566.56 1534.31 3569.47 1579.49C3569.61 1581.63 3569.85 1583.3 3570.2 1584.5 3570.55 1585.7 3571.03 1586.59 3571.64 1587.17 3572.25 1587.75 3573.13 1588.13 3574.3 1588.29L3573.85 1590.27 3556.99 1590.27 3557.44 1588.29C3559.03 1588.15 3560.22 1587.53 3561 1586.42 3561.79 1585.32 3562.18 1583.37 3562.18 1580.59 3562.18 1579.53 3562.14 1578.39 3562.06 1577.14L3561.77 1571.91 3543.94 1571.91 3541.71 1575.89C3540.66 1577.75 3539.89 1579.35 3539.4 1580.69 3538.92 1582.03 3538.67 1583.21 3538.67 1584.24 3538.67 1586.5 3540.04 1587.86 3542.77 1588.29L3542.32 1590.27 3525.74 1590.27 3526.19 1588.29C3527.03 1588.18 3527.82 1587.85 3528.56 1587.29 3529.3 1586.74 3530.09 1585.9 3530.93 1584.78 3531.77 1583.66 3532.94 1581.8 3534.46 1579.21Z" fill="#FFFFFF" fill-rule="evenodd"/><text fill="#000000" fill-opacity="0" font-family="Arial,Arial_MSFontService,sans-serif" font-size="55.9683" x="3525.74" y="1583.28">ğ´</text><path d="M3626.5 1572.28 3676.43 1572.28 3676.43 1577.67 3626.5 1577.67ZM3626.5 1555.46 3676.43 1555.46 3676.43 1560.85 3626.5 1560.85Z" fill="#FFFFFF" fill-rule="evenodd"/><text fill="#000000" fill-opacity="0" font-family="Arial,Arial_MSFontService,sans-serif" font-size="22.209" x="3626.5" y="1574.89">=</text><path d="M3729.77 1534.31C3731.66 1534.31 3733.28 1534.55 3734.63 1535.03 3735.93 1535.47 3737.13 1536.2 3738.24 1537.22 3739.43 1538.3 3740.52 1539.72 3741.52 1541.48 3742.33 1542.88 3743.18 1544.75 3744.08 1547.07 3745.83 1551.64 3747.59 1556.77 3749.34 1562.47 3751.15 1568.28 3752.79 1574.22 3754.25 1580.3L3754.65 1580.3C3755.03 1577.52 3755.52 1574.54 3756.11 1571.35 3756.71 1568.16 3757.21 1565.63 3757.61 1563.77L3760.45 1550.52C3761.75 1544.46 3763.56 1540.25 3765.9 1537.87 3768.24 1535.49 3771.43 1534.31 3775.48 1534.31 3777.59 1534.31 3779.47 1534.87 3781.12 1536.01 3782.77 1537.14 3784.24 1538.9 3785.54 1541.28L3779.5 1543.87C3778.39 1541.63 3777.38 1540.07 3776.48 1539.19 3775.57 1538.31 3774.47 1537.87 3773.17 1537.87 3772.47 1537.87 3771.8 1537.99 3771.17 1538.24 3770.53 1538.48 3769.95 1538.97 3769.41 1539.7 3768.86 1540.43 3768.39 1541.56 3767.97 1543.1 3767.55 1544.64 3767.03 1546.83 3766.41 1549.67L3758.1 1587.96 3752.46 1590.92 3750.8 1590.92C3747.72 1579.33 3745.03 1570.06 3742.74 1563.12 3740.44 1556.18 3738.33 1550.61 3736.42 1546.42L3735.97 1546.46C3735.73 1548.46 3735.24 1551.23 3734.51 1554.77L3730.13 1574.75C3728.81 1580.83 3726.99 1585.05 3724.68 1587.4 3722.37 1589.75 3719.25 1590.92 3715.3 1590.92 3713.14 1590.92 3711.24 1590.34 3709.61 1589.18 3707.97 1588.02 3706.52 1586.26 3705.25 1583.91L3710.76 1580.83C3711.92 1583.15 3713.04 1584.82 3714.11 1585.84 3715.17 1586.85 3716.33 1587.36 3717.57 1587.36 3718.3 1587.36 3718.94 1587.23 3719.48 1586.99 3720.02 1586.75 3720.48 1586.42 3720.87 1586 3721.27 1585.58 3721.61 1585.02 3721.91 1584.32 3722.2 1583.61 3722.51 1582.67 3722.82 1581.5 3723.13 1580.32 3723.58 1578.36 3724.18 1575.6L3728.39 1555.62C3729.77 1549.08 3731.34 1544.28 3733.09 1541.2 3731.55 1539.82 3730 1539.13 3728.43 1539.13 3726.68 1539.13 3725.08 1539.55 3723.63 1540.4 3722.18 1541.26 3720.58 1542.67 3718.83 1544.64L3716.44 1542.41C3719.16 1539.33 3721.51 1537.21 3723.47 1536.05 3725.43 1534.89 3727.53 1534.31 3729.77 1534.31Z" fill="#FFFFFF" fill-rule="evenodd"/><text fill="#000000" fill-opacity="0" font-family="Arial,Arial_MSFontService,sans-serif" font-size="56.6167" x="3705.25" y="1583.84">ğ’©</text><path d="M3819.93 1531.71 3821.03 1534.83C3814.7 1536.91 3810.02 1540.97 3806.98 1547.01 3803.94 1553.05 3802.42 1560.63 3802.42 1569.77 3802.42 1579.22 3803.94 1587.02 3806.98 1593.15 3810.02 1599.28 3814.66 1603.39 3820.9 1605.47L3819.93 1608.59C3812.01 1606.51 3805.95 1602.03 3801.73 1595.16 3797.52 1588.28 3795.41 1579.95 3795.41 1570.17 3795.41 1560.42 3797.53 1552.09 3801.75 1545.19 3805.98 1538.28 3812.04 1533.79 3819.93 1531.71Z" fill="#FFFFFF" fill-rule="evenodd"/><text fill="#000000" fill-opacity="0" font-family="Arial,Arial_MSFontService,sans-serif" font-size="76.8804" x="3795.41" y="1598.98">(</text><path d="M3845.47 1537.75C3843.61 1537.75 3842.05 1538.3 3840.79 1539.41 3839.53 1540.52 3838.52 1542.11 3837.75 1544.19 3836.98 1546.27 3836.43 1548.81 3836.11 1551.79 3835.78 1554.78 3835.62 1558.15 3835.62 1561.9 3835.62 1570.71 3836.44 1577.18 3838.07 1581.3 3839.71 1585.42 3842.24 1587.48 3845.67 1587.48 3848.94 1587.48 3851.37 1585.54 3852.95 1581.66 3854.53 1577.78 3855.32 1571.78 3855.32 1563.65 3855.32 1557.43 3854.91 1552.4 3854.1 1548.55 3853.29 1544.7 3852.16 1541.94 3850.72 1540.26 3849.27 1538.59 3847.52 1537.75 3845.47 1537.75ZM3845.67 1534.31C3851.59 1534.31 3855.99 1536.59 3858.89 1541.15 3861.78 1545.72 3863.22 1552.62 3863.22 1561.86 3863.22 1571.43 3861.68 1578.66 3858.58 1583.57 3855.49 1588.47 3850.97 1590.92 3845.03 1590.92 3839.19 1590.92 3834.85 1588.63 3832 1584.03 3829.15 1579.44 3827.72 1572.47 3827.72 1563.12 3827.72 1558.15 3828.16 1553.85 3829.04 1550.23 3829.92 1546.61 3831.14 1543.62 3832.73 1541.26 3834.31 1538.89 3836.2 1537.14 3838.42 1536.01 3840.63 1534.87 3843.05 1534.31 3845.67 1534.31Z" fill="#FFFFFF" fill-rule="evenodd"/><text fill="#000000" fill-opacity="0" font-family="Arial,Arial_MSFontService,sans-serif" font-size="56.6167" x="3827.72" y="1583.84">0</text><path d="M3873.76 1580.87 3880.85 1580.87C3881.23 1582.76 3881.42 1584.63 3881.42 1586.46 3881.42 1588.36 3881.09 1590.08 3880.44 1591.65 3879.79 1593.22 3878.76 1594.78 3877.34 1596.33 3875.92 1597.89 3873.97 1599.59 3871.49 1601.46L3869.3 1598.99C3870.68 1597.69 3871.68 1596.52 3872.3 1595.48 3872.92 1594.44 3873.36 1593.26 3873.63 1591.94 3873.9 1590.61 3874.04 1588.95 3874.04 1586.95 3874.04 1584.9 3873.95 1582.87 3873.76 1580.87Z" fill="#FFFFFF" fill-rule="evenodd"/><text fill="#000000" fill-opacity="0" font-family="Arial,Arial_MSFontService,sans-serif" font-size="20.5879" x="3869.3" y="1598.89">,</text><path d="M3928.08 1557C3924.46 1557.11 3921.22 1558.16 3918.35 1560.14 3915.49 1562.13 3913.27 1564.8 3911.68 1568.15 3910.1 1571.5 3909.31 1575.21 3909.31 1579.29 3909.31 1581.4 3909.66 1583.09 3910.35 1584.38 3911.04 1585.66 3911.89 1586.55 3912.92 1587.03 3913.95 1587.52 3915.06 1587.76 3916.24 1587.76 3918.97 1587.76 3921.34 1586.87 3923.34 1585.09 3925.34 1583.3 3926.95 1580.59 3928.18 1576.94 3929.41 1573.29 3930.02 1569.75 3930.02 1566.32 3930.02 1562.62 3929.37 1559.51 3928.08 1557ZM3934.32 1551.53 3947.21 1551.53 3945.99 1556.88 3932.74 1556.88 3932.66 1557.2C3934.2 1559.04 3935.31 1560.89 3935.98 1562.76 3936.66 1564.62 3936.99 1566.66 3936.99 1568.88 3936.99 1572.9 3936.13 1576.64 3934.4 1580.08 3932.67 1583.53 3930.25 1586.19 3927.15 1588.09 3924.04 1589.98 3920.53 1590.92 3916.61 1590.92 3912.15 1590.92 3908.75 1589.73 3906.42 1587.34 3904.08 1584.94 3902.91 1581.56 3902.91 1577.18 3902.91 1574.18 3903.36 1571.34 3904.27 1568.65 3905.17 1565.96 3906.51 1563.49 3908.28 1561.24 3910.05 1558.98 3912.06 1557.15 3914.3 1555.74 3916.54 1554.34 3919.22 1553.29 3922.32 1552.58 3925.43 1551.88 3929.43 1551.53 3934.32 1551.53Z" fill="#FFFFFF" fill-rule="evenodd"/><text fill="#000000" fill-opacity="0" font-family="Arial,Arial_MSFontService,sans-serif" font-size="39.3926" x="3902.91" y="1586">ğœ</text><path d="M3970.01 1521.5C3972.07 1521.5 3973.83 1521.73 3975.29 1522.2 3976.75 1522.66 3977.94 1523.29 3978.85 1524.09 3979.76 1524.88 3980.43 1525.84 3980.83 1526.95 3981.24 1528.06 3981.44 1529.26 3981.44 1530.55 3981.44 1531.33 3981.39 1532.05 3981.28 1532.71 3981.17 1533.38 3980.98 1534.03 3980.71 1534.68 3980.44 1535.32 3980.09 1535.97 3979.66 1536.63 3979.22 1537.28 3978.67 1537.98 3978.02 1538.71 3977.52 1539.35 3976.88 1540.08 3976.08 1540.92 3975.29 1541.75 3974.42 1542.65 3973.48 1543.6 3972.53 1544.55 3971.54 1545.54 3970.51 1546.58 3969.48 1547.61 3968.48 1548.63 3967.5 1549.64 3966.53 1550.66 3965.64 1551.64 3964.82 1552.59 3964.01 1553.55 3963.34 1554.42 3962.83 1555.21L3973.85 1555.21C3974.78 1555.21 3975.53 1555.18 3976.08 1555.11 3976.64 1555.04 3977.1 1554.89 3977.47 1554.65 3977.83 1554.41 3978.15 1554.05 3978.4 1553.56 3978.66 1553.07 3978.96 1552.4 3979.3 1551.55L3982.07 1551.55C3981.97 1552.96 3981.87 1554.38 3981.79 1555.81 3981.7 1557.24 3981.6 1558.66 3981.5 1560.07L3956.27 1560.07 3956.27 1558.52C3956.75 1557.45 3957.31 1556.39 3957.94 1555.35 3958.58 1554.31 3959.29 1553.25 3960.09 1552.18 3960.88 1551.1 3961.78 1550 3962.8 1548.86 3963.81 1547.71 3964.93 1546.53 3966.16 1545.3 3968.03 1543.43 3969.55 1541.84 3970.72 1540.52 3971.89 1539.2 3972.81 1538.02 3973.49 1536.99 3974.17 1535.95 3974.63 1535 3974.88 1534.13 3975.12 1533.25 3975.25 1532.32 3975.25 1531.33 3975.25 1530.31 3975.1 1529.38 3974.82 1528.53 3974.53 1527.67 3974.12 1526.95 3973.58 1526.35 3973.04 1525.76 3972.36 1525.29 3971.54 1524.95 3970.72 1524.62 3969.77 1524.45 3968.69 1524.45 3966.85 1524.45 3965.3 1524.95 3964.05 1525.95 3962.8 1526.95 3961.82 1528.41 3961.13 1530.31L3957.23 1530.31 3957.23 1524.51C3959.77 1523.45 3962.11 1522.69 3964.24 1522.21 3966.38 1521.74 3968.3 1521.5 3970.01 1521.5Z" fill="#FFFFFF" fill-rule="evenodd"/><text fill="#000000" fill-opacity="0" font-family="Arial,Arial_MSFontService,sans-serif" font-size="38.5718" x="3956.27" y="1555.25">2</text><path d="M3993.22 1531.71C4001.11 1533.79 4007.17 1538.28 4011.4 1545.19 4015.62 1552.09 4017.74 1560.42 4017.74 1570.17 4017.74 1579.95 4015.63 1588.28 4011.42 1595.16 4007.2 1602.03 4001.14 1606.51 3993.22 1608.59L3992.25 1605.47C3998.49 1603.39 4003.13 1599.28 4006.17 1593.15 4009.21 1587.02 4010.73 1579.22 4010.73 1569.77 4010.73 1560.63 4009.21 1553.05 4006.19 1547.01 4003.16 1540.97 3998.48 1536.91 3992.13 1534.83Z" fill="#FFFFFF" fill-rule="evenodd"/><text fill="#000000" fill-opacity="0" font-family="Arial,Arial_MSFontService,sans-serif" font-size="76.8804" x="3992.13" y="1598.98">)</text><path d="M3618.99 1181.64 3612.33 1212.41C3614.51 1212.56 3617.2 1212.63 3620.39 1212.63 3625.83 1212.63 3629.92 1212.01 3632.66 1210.78 3635.4 1209.54 3637.75 1207.35 3639.72 1204.2 3641.69 1201.05 3642.68 1197.16 3642.68 1192.54 3642.68 1188.92 3641.49 1186.2 3639.1 1184.38 3636.72 1182.55 3633.17 1181.64 3628.44 1181.64ZM3634.89 1148.77C3631.77 1148.77 3628.87 1148.82 3626.19 1148.93L3620.12 1176.91 3627.69 1176.91C3631.92 1176.91 3635.27 1176.57 3637.76 1175.89 3640.25 1175.21 3642.44 1173.99 3644.34 1172.24 3646.24 1170.48 3647.62 1168.56 3648.48 1166.46 3649.34 1164.37 3649.77 1161.94 3649.77 1159.19 3649.77 1157.65 3649.5 1156.21 3648.96 1154.86 3648.42 1153.52 3647.5 1152.37 3646.19 1151.43 3644.89 1150.48 3643.38 1149.8 3641.68 1149.38 3639.98 1148.97 3637.72 1148.77 3634.89 1148.77ZM3610.77 1144.04 3637.36 1144.04C3642.73 1144.04 3647.04 1144.6 3650.28 1145.73 3653.52 1146.86 3655.9 1148.52 3657.42 1150.7 3658.94 1152.88 3659.7 1155.62 3659.7 1158.92 3659.7 1163.61 3658.27 1167.7 3655.41 1171.19 3652.54 1174.68 3648.28 1177.36 3642.62 1179.22L3642.52 1179.81C3645.85 1181.14 3648.41 1183.03 3650.2 1185.48 3651.99 1187.93 3652.88 1190.71 3652.88 1193.83 3652.88 1198.59 3651.79 1202.67 3649.61 1206.05 3647.42 1209.43 3644.14 1212.16 3639.78 1214.24 3635.41 1216.32 3629.02 1217.36 3620.6 1217.36L3596.7 1217.36 3597.29 1214.72C3598.65 1214.51 3599.67 1214.16 3600.35 1213.68 3601.03 1213.19 3601.61 1212.52 3602.07 1211.66 3602.54 1210.8 3602.97 1209.76 3603.36 1208.52 3603.75 1207.28 3604.34 1204.89 3605.13 1201.35L3614.26 1159.99C3615.05 1156.41 3615.45 1153.58 3615.45 1151.51 3615.45 1149.75 3615.03 1148.53 3614.21 1147.85 3613.39 1147.17 3612.04 1146.78 3610.18 1146.67Z" fill="#FFFFFF" fill-rule="evenodd"/><text fill="#000000" fill-opacity="0" font-family="Arial,Arial_MSFontService,sans-serif" font-size="73.3154" x="3596.7" y="1208.19">ğµ</text><path d="M3731.4 1193.51 3797.57 1193.51 3797.57 1200.65 3731.4 1200.65ZM3731.4 1171.22 3797.57 1171.22 3797.57 1178.36 3731.4 1178.36Z" fill="#FFFFFF" fill-rule="evenodd"/><text fill="#000000" fill-opacity="0" font-family="Arial,Arial_MSFontService,sans-serif" font-size="29.4336" x="3731.4" y="1196.97">=</text><path d="M3890.38 1147.75C3887.91 1147.75 3885.85 1148.48 3884.18 1149.95 3882.52 1151.42 3881.17 1153.53 3880.15 1156.29 3879.13 1159.04 3878.41 1162.4 3877.98 1166.36 3877.55 1170.31 3877.33 1174.78 3877.33 1179.76 3877.33 1191.43 3878.42 1200 3880.58 1205.46 3882.75 1210.92 3886.11 1213.65 3890.65 1213.65 3894.99 1213.65 3898.2 1211.08 3900.29 1205.94 3902.39 1200.8 3903.44 1192.85 3903.44 1182.07 3903.44 1173.83 3902.9 1167.16 3901.82 1162.06 3900.75 1156.96 3899.26 1153.3 3897.34 1151.08 3895.42 1148.86 3893.11 1147.75 3890.38 1147.75ZM3890.65 1143.18C3898.49 1143.18 3904.33 1146.21 3908.16 1152.26 3911.99 1158.31 3913.91 1167.46 3913.91 1179.7 3913.91 1192.38 3911.86 1201.97 3907.76 1208.47 3903.66 1214.97 3897.67 1218.21 3889.79 1218.21 3882.06 1218.21 3876.3 1215.17 3872.53 1209.08 3868.75 1203 3866.86 1193.76 3866.86 1181.37 3866.86 1174.78 3867.44 1169.09 3868.6 1164.29 3869.77 1159.49 3871.4 1155.53 3873.49 1152.39 3875.59 1149.26 3878.1 1146.94 3881.04 1145.44 3883.97 1143.93 3887.18 1143.18 3890.65 1143.18Z" fill="#FFFFFF" fill-rule="evenodd"/><text fill="#000000" fill-opacity="0" font-family="Arial,Arial_MSFontService,sans-serif" font-size="75.0342" x="3866.86" y="1208.84">0</text><path d="M3659.55 1806.94 3727.65 1729.51 3709.78 1713.79 3776.98 1709.48 3781.29 1776.69 3763.41 1760.96 3695.3 1838.39Z" stroke="#000000" stroke-width="4.58333" stroke-miterlimit="8" fill="none" fill-rule="evenodd"/><path d="M0 23.8091 103.114 23.8091 103.114 0 150.732 47.6181 103.114 95.2363 103.114 71.4273 0 71.4273Z" stroke="#000000" stroke-width="4.58333" stroke-miterlimit="8" fill="none" fill-rule="evenodd" transform="matrix(-0.720111 -0.693858 -0.693858 0.720111 3258.22 1787.17)"/><g><g><g><path d="M3491.56 823.437C3488.06 815.158 3483.04 807.723 3476.66 801.34 3470.28 794.956 3462.84 789.944 3454.56 786.442 3445.99 782.816 3436.88 780.977 3427.5 780.977 3418.12 780.977 3409.01 782.816 3400.44 786.442 3392.16 789.944 3384.72 794.956 3378.34 801.34 3371.96 807.723 3366.94 815.157 3363.44 823.437 3359.82 832.011 3357.98 841.116 3357.98 850.5 3357.98 859.883 3359.82 868.989 3363.44 877.563 3366.94 885.842 3371.96 893.277 3378.34 899.66 3384.72 906.044 3392.16 911.056 3400.44 914.558 3409.01 918.184 3418.12 920.023 3427.5 920.023 3436.88 920.023 3445.99 918.184 3454.56 914.558 3462.84 911.056 3470.28 906.044 3476.66 899.66 3483.04 893.277 3488.06 885.842 3491.56 877.563 3495.18 868.989 3497.02 859.883 3497.02 850.5 3497.02 841.116 3495.18 832.011 3491.56 823.437ZM3427.5 910.164C3394.6 910.164 3367.84 883.399 3367.84 850.5 3367.84 817.601 3394.6 790.836 3427.5 790.836 3460.4 790.836 3487.16 817.601 3487.16 850.5 3487.16 883.399 3460.4 910.164 3427.5 910.164Z" fill="#070102"/><path d="M3462.9 845.531 3432.47 845.531 3432.47 815.098C3432.47 812.697 3430.24 810.75 3427.5 810.75 3424.76 810.75 3422.53 812.697 3422.53 815.098L3422.53 845.531 3392.1 845.531C3389.7 845.531 3387.75 847.756 3387.75 850.5 3387.75 853.244 3389.7 855.469 3392.1 855.469L3422.53 855.469 3422.53 885.902C3422.53 888.303 3424.76 890.25 3427.5 890.25 3430.24 890.25 3432.47 888.303 3432.47 885.902L3432.47 855.469 3462.9 855.469C3465.3 855.469 3467.25 853.244 3467.25 850.5 3467.25 847.756 3465.3 845.531 3462.9 845.531Z" fill="#070102"/></g></g></g><path d="M3072.12 1038.05 3072.12 843.125 3313.13 843.125 3313.13 856.875 3079 856.875 3085.88 850 3085.88 1038.05ZM3306.26 829.375 3347.51 850 3306.26 870.625Z"/><path d="M0-6.875 198.125-6.875 198.125 216.371 184.375 216.371 184.375 0 191.25 6.875 0 6.875ZM211.875 209.496 191.25 250.746 170.625 209.496Z" transform="matrix(-1.83697e-16 -1 -1 1.83697e-16 3757.75 1041.25)"/><rect x="3079.5" y="576.5" width="697" height="99" stroke="#192D54" stroke-width="4.58333" stroke-miterlimit="8" fill="#FEE695"/><path d="M3420.13 770.625 3420.12 709.375 3433.88 709.375 3433.88 770.625ZM3406.38 716.25 3427 675 3447.62 716.25Z"/><path d="M2978.35 593.995 2980.95 593.995 2973.23 625.126 2973.77 625.305C2976.61 621.532 2979.3 618.799 2981.83 617.107 2984.36 615.415 2986.91 614.569 2989.49 614.569 2992.27 614.569 2994.42 615.37 2995.91 616.972 2997.41 618.575 2998.16 620.798 2998.16 623.643 2998.16 625.53 2997.72 628.21 2996.86 631.684L2993.94 643.454C2993.13 646.718 2992.72 649.024 2992.72 650.372 2992.72 651.57 2992.92 652.438 2993.31 652.977 2993.7 653.516 2994.31 653.786 2995.15 653.786 2996.05 653.786 2997.01 653.419 2998.02 652.685 2999.04 651.952 3000.48 650.552 3002.34 648.485L3004.9 651.001C3002.02 654.026 2999.66 656.107 2997.82 657.245 2995.98 658.383 2993.91 658.952 2991.6 658.952 2989.65 658.952 2988.1 658.263 2986.95 656.886 2985.8 655.508 2985.22 653.726 2985.22 651.54 2985.22 649.593 2985.72 646.733 2986.7 642.96L2988.64 635.188C2989.32 632.403 2989.79 630.314 2990.03 628.922 2990.27 627.529 2990.39 626.443 2990.39 625.665 2990.39 623.539 2990.04 622.034 2989.35 621.15 2988.67 620.267 2987.54 619.825 2985.98 619.825 2984.76 619.825 2983.39 620.334 2981.9 621.352 2980.4 622.371 2978.83 623.92 2977.18 626.002 2975.53 628.083 2974.22 630.075 2973.25 631.976 2972.28 633.878 2971.5 636.147 2970.94 638.782L2966.85 658.233 2959.08 658.233 2970.62 606.888C2971.34 603.683 2971.7 601.467 2971.7 600.239 2971.7 598.981 2971.32 598.098 2970.55 597.589 2969.79 597.08 2968.42 596.795 2966.44 596.735L2966.98 594.399Z" fill-rule="evenodd"/><text fill="#000000" fill-opacity="0" font-family="Arial,Arial_MSFontService,sans-serif" font-size="64.957" x="2959.08" y="650.832">â„</text><text font-family="Calibri,Calibri_MSFontService,sans-serif" font-weight="700" font-size="110" transform="matrix(1 0 0 1 3197.44 2326)">LoRA</text><text font-family="Calibri,Calibri_MSFontService,sans-serif" font-weight="700" font-size="110" transform="matrix(1 0 0 1 3455.83 2326)">layer</text></g></svg>