<svg width="2934" height="1955" xmlns="http://www.w3.org/2000/svg" xmlns:xlink="http://www.w3.org/1999/xlink" xml:space="preserve" overflow="hidden"><defs><clipPath id="clip0"><rect x="452" y="-21" width="2934" height="1955"/></clipPath></defs><g clip-path="url(#clip0)" transform="translate(-452 21)"><g><path d="M616.5 1519.55 3335.5 1519.55M616.5 1357.54 3335.5 1357.54M616.5 1195.54 3335.5 1195.54M616.5 1032.53 3335.5 1032.53M616.5 870.529 3335.5 870.529M616.5 708.523 3335.5 708.523M616.5 546.518 3335.5 546.518M616.5 384.513 3335.5 384.513M616.5 222.5 3335.5 222.5" stroke="#D9D9D9" stroke-width="3.4375" stroke-linejoin="round" stroke-miterlimit="10" fill="none"/></g><g><path d="M750.025 1381.05 872.029 1381.05 872.029 1681 750.025 1681ZM1294.04 1404.05 1415.05 1404.05 1415.05 1681 1294.04 1681ZM1837.06 1391.05 1959.06 1391.05 1959.06 1681 1837.06 1681ZM2381.08 416.014 2503.08 416.014 2503.08 1681 2381.08 1681ZM2925.1 1501.05 3047.1 1501.05 3047.1 1681 2925.1 1681Z" fill="#4874CB"/></g><g><path d="M1448.05 1629.05 1570.05 1629.05 1570.05 1681 1448.05 1681ZM1992.07 1524.05 2114.07 1524.05 2114.07 1681 1992.07 1681ZM2536.08 1556.05 2658.09 1556.05 2658.09 1681 2536.08 1681Z" fill="#EE822F"/></g><g><path d="M616.5 1681.5 3335.5 1681.5" stroke="#D9D9D9" stroke-width="3.4375" stroke-linejoin="round" stroke-miterlimit="10" fill="none" fill-rule="evenodd"/></g><g><text font-family="Calibri,Calibri_MSFontService,sans-serif" font-weight="400" font-size="55" transform="matrix(1 0 0 1 769.066 1346)">185</text></g><g><text font-family="Calibri,Calibri_MSFontService,sans-serif" font-weight="400" font-size="55" transform="matrix(1 0 0 1 1312.83 1369)">171</text></g><g><text font-family="Calibri,Calibri_MSFontService,sans-serif" font-weight="400" font-size="55" transform="matrix(1 0 0 1 1856.6 1356)">179</text></g><g><text font-family="Calibri,Calibri_MSFontService,sans-serif" font-weight="400" font-size="55" transform="matrix(1 0 0 1 2400.37 380)">781</text></g><g><text font-family="Calibri,Calibri_MSFontService,sans-serif" font-weight="400" font-size="55" transform="matrix(1 0 0 1 2944.14 1466)">111</text></g><g><text font-family="Calibri,Calibri_MSFontService,sans-serif" font-weight="400" font-size="55" transform="matrix(1 0 0 1 951.703 1646)">0</text></g><g><text font-family="Calibri,Calibri_MSFontService,sans-serif" font-weight="400" font-size="55" transform="matrix(1 0 0 1 1481.57 1594)">32</text></g><g><text font-family="Calibri,Calibri_MSFontService,sans-serif" font-weight="400" font-size="55" transform="matrix(1 0 0 1 2025.34 1489)">97</text></g><g><text font-family="Calibri,Calibri_MSFontService,sans-serif" font-weight="400" font-size="55" transform="matrix(1 0 0 1 2569.11 1521)">77</text></g><g><text font-family="Calibri,Calibri_MSFontService,sans-serif" font-weight="400" font-size="55" transform="matrix(1 0 0 1 3126.78 1646)">0</text></g><g><text font-family="Calibri,Calibri_MSFontService,sans-serif" font-weight="400" font-size="55" transform="matrix(1 0 0 1 537.61 1697)">0</text></g><g><text font-family="Calibri,Calibri_MSFontService,sans-serif" font-weight="400" font-size="55" transform="matrix(1 0 0 1 482.014 1535)">100</text></g><g><text font-family="Calibri,Calibri_MSFontService,sans-serif" font-weight="400" font-size="55" transform="matrix(1 0 0 1 482.014 1373)">200</text></g><g><text font-family="Calibri,Calibri_MSFontService,sans-serif" font-weight="400" font-size="55" transform="matrix(1 0 0 1 482.014 1211)">300</text></g><g><text font-family="Calibri,Calibri_MSFontService,sans-serif" font-weight="400" font-size="55" transform="matrix(1 0 0 1 482.014 1049)">400</text></g><g><text font-family="Calibri,Calibri_MSFontService,sans-serif" font-weight="400" font-size="55" transform="matrix(1 0 0 1 482.014 886)">500</text></g><g><text font-family="Calibri,Calibri_MSFontService,sans-serif" font-weight="400" font-size="55" transform="matrix(1 0 0 1 482.014 724)">600</text></g><g><text font-family="Calibri,Calibri_MSFontService,sans-serif" font-weight="400" font-size="55" transform="matrix(1 0 0 1 482.014 562)">700</text></g><g><text font-family="Calibri,Calibri_MSFontService,sans-serif" font-weight="400" font-size="55" transform="matrix(1 0 0 1 482.014 400)">800</text></g><g><text font-family="Calibri,Calibri_MSFontService,sans-serif" font-weight="400" font-size="55" transform="matrix(1 0 0 1 482.014 238)">900</text></g><g><text font-family="Calibri,Calibri_MSFontService,sans-serif" font-weight="400" font-size="55" transform="matrix(1 0 0 1 776.12 1768)">S1A1T2C1</text></g><g><text font-family="Calibri,Calibri_MSFontService,sans-serif" font-weight="400" font-size="55" transform="matrix(1 0 0 1 1319.89 1768)">S3A5T2C1</text></g><g><text font-family="Calibri,Calibri_MSFontService,sans-serif" font-weight="400" font-size="55" transform="matrix(1 0 0 1 1863.66 1768)">S4A3T1C1</text></g><g><text font-family="Calibri,Calibri_MSFontService,sans-serif" font-weight="400" font-size="55" transform="matrix(1 0 0 1 2407.42 1768)">S6A6T1C1</text></g><g><text font-family="Calibri,Calibri_MSFontService,sans-serif" font-weight="400" font-size="55" transform="matrix(1 0 0 1 2937.29 1768)">S8A10T3C1</text></g><g><text font-family="Microsoft YaHei,Microsoft YaHei_MSFontService,sans-serif" font-weight="400" font-size="85" transform="matrix(1 0 0 1 1534.85 120)">丢失关节点帧数对比</text></g><g><rect x="1627" y="1845" width="29.9999" height="30.0002" fill="#4874CB"/></g><g><text font-family="Calibri,Calibri_MSFontService,sans-serif" font-weight="400" font-size="55" transform="matrix(1 0 0 1 1670.42 1875)">OpenPose</text></g><g><rect x="1953" y="1845" width="30.0002" height="30.0002" fill="#EE822F"/></g><g><text font-family="Calibri,Calibri_MSFontService,sans-serif" font-weight="400" font-size="55" transform="matrix(1 0 0 1 1996.78 1875)">AlphaPose</text></g></g></svg>