<?xml version="1.0" standalone="no"?><!DOCTYPE svg PUBLIC "-//W3C//DTD SVG 1.1//EN" "http://www.w3.org/Graphics/SVG/1.1/DTD/svg11.dtd"><svg t="1748190294419" class="icon" viewBox="0 0 1024 1024" version="1.1" xmlns="http://www.w3.org/2000/svg" p-id="4792" xmlns:xlink="http://www.w3.org/1999/xlink" width="256" height="256"><path d="M240.13591471 585.432839c-1.508758 17.76761 10.55138 111.811871 16.775006 148.687107 2.962923 17.469829 11.087386 45.932747 8.164168 61.045142-4.1739 21.063056-5.379913 48.31996-3.082036 64.191697 1.449202 9.638184 6.010217 54.091952-0.516154 70.350804-3.414558 8.526468-9.672925 52.220893-9.672925 52.220893-16.30352 41.163285-7.102081 39.138373-7.102081 39.138373 5.047391 6.193849 13.692971 0.486376 13.692971 0.486376 6.585927 4.198715 11.146942-0.997567 11.146942-0.997567 5.652879 4.680128 12.24377-0.57571 12.24377-0.57571 7.102081 3.687524 13.688008-3.111813 13.688008-3.111813 4.079602 2.05469 5.077169-0.540969 5.077169-0.540969 12.238807-0.784157-6.829115-39.952308-6.829115-39.952309-4.565978-35.177884 4.531237-54.756996 4.531237-54.756996 29.79797-88.366566 31.311691-111.816834 19.400444-145.118696-3.355001-9.613369-4.203678-13.420005-2.660178-17.593905 3.568411-9.633221 0.967789-48.379516 5.320357-63.764877 8.397429-29.673895 16.680709-104.928162 20.998536-140.041526 5.80177-47.297578-20.551865-110.715043-20.551864-110.715043-5.771992-25.807702 2.689957-117.757568 2.689956-117.757568 11.81695 18.387988 11.365315 50.846137 11.365315 50.846136-1.876021 34.041352 27.500092 86.068687 27.500092 86.068688 14.114828 21.499801 19.46 41.897812 19.460001 43.411533 0 6.193849-1.354904 21.187131-1.354905 21.187131l0.540969 13.057705c0.243188 3.325223 2.114246 14.77491 1.811503 20.308676-2.203581 34.056241 3.206111 27.648983 3.20611 27.648983 4.565978 0 9.583591-27.405795 9.583591-27.405795 0 7.06734-1.727131 28.224693 2.084469 36.205229 4.561015 9.519072 7.916016-1.632833 7.975572-3.871155 1.206014-43.361903 3.811599-32.001551 3.811599-32.001551 2.536103 35.177884 5.652879 43.123678 11.24124 40.374165 4.233456-2.019949 0.3623-42.215445 0.3623-42.215446 7.250972 23.877088 12.749998 27.678761 12.749998 27.678761 11.96584 8.402392 4.565978-14.804688 2.903366-19.400444-8.854027-24.418057-9.126993-32.880005-9.126993-32.880005 11.062571 21.94151 19.400444 21.127575 19.400444 21.127575 10.789605-3.444336-9.429737-34.512839-21.276465-49.396935-6.044958-7.583494-13.841862-17.737832-16.104999-23.767902-3.687524-10.213895-6.471778-43.049233-6.471778-43.049232-1.116679-38.746295-10.695307-55.575894-10.695307-55.575895-16.377965-26.21467-19.46-75.115303-19.46-75.115303l-0.724601-82.559832c-5.742214-56.315384-47.238021-56.722352-47.238022-56.722352-41.942479-6.243479-47.778991-19.792523-47.77899-19.792523-8.883805-12.784739-3.806636-37.29213-3.806636-37.29213 7.370084-5.995328 10.213895-21.911732 10.213894-21.911732 12.238807-9.38507 11.638281-23.117746 5.985402-22.968855-4.5362 0.119112-3.508855-3.637893-3.508855-3.637893C293.75141571 3.156481 238.87034471 0 238.87034471 0h-8.377578s-54.905887 3.156481-47.262836 64.960965c0 0 1.027345 3.761969-3.548559 3.637893-5.63799-0.148891-6.16407 13.583785 6.030069 22.968855 0 0 2.838847 15.911441 10.213894 21.911732 0 0 5.077169 24.507391-3.806636 37.29213 0 0-5.816659 13.549044-47.77899 19.792523 0 0-41.56529 0.406968-47.21817 56.722352l-0.784157 82.559832s-3.022479 48.900633-19.464963 75.115303c0 0-9.533961 16.834563-10.635751 55.575895 0 0-2.79418 32.835338-6.466815 43.049232-2.238322 6.000291-10.030263 16.154629-16.124851 23.767902-11.950951 14.854318-32.036292 45.858302-21.291354 49.396935 0 0 8.38254 0.813935 19.400444-21.127575 0 0-0.228299 8.402392-9.067437 32.880005-1.737057 4.5362-9.126993 27.74328 2.84381 19.400444 0 0 5.543693-3.806636 12.749998-27.678761 0 0-3.866192 40.195496 0.436745 42.215446 5.623101 2.754476 8.690247-5.196282 11.226351-40.374165 0 0 2.600622-11.360352 3.806636 32.001551 0.059556 2.238322 3.340112 13.390227 7.920979 3.871155 3.866192-7.980536 2.129135-29.103147 2.129136-36.205229 0 0 4.958057 27.405795 9.593517 27.405795 0 0 5.454359 6.407258 3.216037-27.648983-0.3623-5.563545 1.588166-16.983453 1.831354-20.308676l0.52608-13.057705s-1.359867-14.958541-1.359867-21.187131c0-1.543499 5.350135-21.911732 19.46-43.411533 0 0 29.346335-52.05215 27.455425-86.068688 0 0-0.406968-32.458149 11.409982-50.846136 0 0 8.387503 91.944903 2.704846 117.757568 0 0-26.398302 63.417466-20.57668 110.715043 4.288049 35.207662 12.55644 110.362669 20.973721 140.041526 4.397235 15.355583 1.796613 54.091952 5.320357 63.764877 1.588166 4.203678 0.754379 8.074833-2.660178 17.593905-11.846728 33.301862-10.33797 56.757093 19.46 145.118696 0 0 9.17166 19.579113 4.5362 54.756996 0 0-19.038144 39.168151-6.844004 39.952309 0 0 0.9529 2.595659 5.077169 0.540969 0 0 6.585927 6.799337 13.702897 3.111813 0 0 6.59089 5.260801 12.223918 0.57571 0 0 4.516348 5.196282 11.102275 0.997567 0 0 8.64558 5.831548 13.782306-0.486376 0 0 9.126993 2.024912-7.121934-39.138373 0 0-6.223627-43.639832-9.653073-52.220893-6.54126-16.253889-1.920689-60.801954-0.52608-70.350804 2.248248-15.961071 1.042234-43.153456-3.067146-64.191697-3.00759-15.077654 5.136725-43.545535 8.144315-61.045142 6.17896-36.840495 18.288728-130.889718 16.775007-148.687107l5.002724 1.756909c3.5833 0.009926 5.846437-1.74202 5.846437-1.74202z" p-id="4793" fill="#e6e6e6"></path></svg>